  0
SECTION
  2
HEADER
  9
$ACADVER
  1
AC1024
  9
$ACADMAINTVER
 70
6
  9
$DWGCODEPAGE
  3
ANSI_1252
  9
$LASTSAVEDBY
  1
ezdxf
  9
$INSBASE
 10
0.0
 20
0.0
 30
0.0
  9
$EXTMIN
 10
1e+20
 20
1e+20
 30
1e+20
  9
$EXTMAX
 10
-1e+20
 20
-1e+20
 30
-1e+20
  9
$LIMMIN
 10
0.0
 20
0.0
  9
$LIMMAX
 10
420.0
 20
297.0
  9
$ORTHOMODE
 70
0
  9
$REGENMODE
 70
1
  9
$FILLMODE
 70
1
  9
$QTEXTMODE
 70
0
  9
$MIRRTEXT
 70
1
  9
$LTSCALE
 40
1.0
  9
$ATTMODE
 70
1
  9
$TEXTSIZE
 40
2.5
  9
$TRACEWID
 40
1.0
  9
$TEXTSTYLE
  7
Standard
  9
$CLAYER
  8
0
  9
$CELTYPE
  6
ByLayer
  9
$CECOLOR
 62
256
  9
$CELTSCALE
 40
1.0
  9
$DISPSILH
 70
0
  9
$DIMSCALE
 40
1.0
  9
$DIMASZ
 40
2.5
  9
$DIMEXO
 40
0.625
  9
$DIMDLI
 40
3.75
  9
$DIMRND
 40
0.0
  9
$DIMDLE
 40
0.0
  9
$DIMEXE
 40
1.25
  9
$DIMTP
 40
0.0
  9
$DIMTM
 40
0.0
  9
$DIMTXT
 40
2.5
  9
$DIMCEN
 40
2.5
  9
$DIMTSZ
 40
0.0
  9
$DIMTOL
 70
0
  9
$DIMLIM
 70
0
  9
$DIMTIH
 70
0
  9
$DIMTOH
 70
0
  9
$DIMSE1
 70
0
  9
$DIMSE2
 70
0
  9
$DIMTAD
 70
1
  9
$DIMZIN
 70
8
  9
$DIMBLK
  1

  9
$DIMASO
 70
1
  9
$DIMSHO
 70
1
  9
$DIMPOST
  1

  9
$DIMAPOST
  1

  9
$DIMALT
 70
0
  9
$DIMALTD
 70
3
  9
$DIMALTF
 40
0.03937007874
  9
$DIMLFAC
 40
1.0
  9
$DIMTOFL
 70
1
  9
$DIMTVP
 40
0.0
  9
$DIMTIX
 70
0
  9
$DIMSOXD
 70
0
  9
$DIMSAH
 70
0
  9
$DIMBLK1
  1

  9
$DIMBLK2
  1

  9
$DIMSTYLE
  2
ISO-25
  9
$DIMCLRD
 70
0
  9
$DIMCLRE
 70
0
  9
$DIMCLRT
 70
0
  9
$DIMTFAC
 40
1.0
  9
$DIMGAP
 40
0.625
  9
$DIMJUST
 70
0
  9
$DIMSD1
 70
0
  9
$DIMSD2
 70
0
  9
$DIMTOLJ
 70
0
  9
$DIMTZIN
 70
8
  9
$DIMALTZ
 70
0
  9
$DIMALTTZ
 70
0
  9
$DIMUPT
 70
0
  9
$DIMDEC
 70
2
  9
$DIMTDEC
 70
2
  9
$DIMALTU
 70
2
  9
$DIMALTTD
 70
3
  9
$DIMTXSTY
  7
Standard
  9
$DIMAUNIT
 70
0
  9
$DIMADEC
 70
0
  9
$DIMALTRND
 40
0.0
  9
$DIMAZIN
 70
0
  9
$DIMDSEP
 70
44
  9
$DIMATFIT
 70
3
  9
$DIMFRAC
 70
0
  9
$DIMLDRBLK
  1

  9
$DIMLUNIT
 70
2
  9
$DIMLWD
 70
-2
  9
$DIMLWE
 70
-2
  9
$DIMTMOVE
 70
0
  9
$DIMFXL
 40
1.0
  9
$DIMFXLON
 70
0
  9
$DIMJOGANG
 40
0.785398163397
  9
$DIMTFILL
 70
0
  9
$DIMTFILLCLR
 70
0
  9
$DIMARCSYM
 70
0
  9
$DIMLTYPE
  6

  9
$DIMLTEX1
  6

  9
$DIMLTEX2
  6

  9
$DIMTXTDIRECTION
 70
0
  9
$LUNITS
 70
2
  9
$LUPREC
 70
4
  9
$SKETCHINC
 40
1.0
  9
$FILLETRAD
 40
10.0
  9
$AUNITS
 70
0
  9
$AUPREC
 70
2
  9
$MENU
  1
.
  9
$ELEVATION
 40
0.0
  9
$PELEVATION
 40
0.0
  9
$THICKNESS
 40
0.0
  9
$LIMCHECK
 70
0
  9
$CHAMFERA
 40
0.0
  9
$CHAMFERB
 40
0.0
  9
$CHAMFERC
 40
0.0
  9
$CHAMFERD
 40
0.0
  9
$SKPOLY
 70
0
  9
$TDCREATE
 40
2461189.7362037036
  9
$TDUCREATE
 40
2458532.153996898
  9
$TDUPDATE
 40
2461189.7362037036
  9
$TDUUPDATE
 40
2458532.1544311
  9
$TDINDWG
 40
0.0
  9
$TDUSRTIMER
 40
0.0
  9
$USRTIMER
 70
1
  9
$ANGBASE
 50
0.0
  9
$ANGDIR
 70
0
  9
$PDMODE
 70
0
  9
$PDSIZE
 40
0.0
  9
$PLINEWID
 40
0.0
  9
$SPLFRAME
 70
0
  9
$SPLINETYPE
 70
6
  9
$SPLINESEGS
 70
8
  9
$HANDSEED
  5
C2
  9
$SURFTAB1
 70
6
  9
$SURFTAB2
 70
6
  9
$SURFTYPE
 70
6
  9
$SURFU
 70
6
  9
$SURFV
 70
6
  9
$UCSBASE
  2

  9
$UCSNAME
  2

  9
$UCSORG
 10
0.0
 20
0.0
 30
0.0
  9
$UCSXDIR
 10
1.0
 20
0.0
 30
0.0
  9
$UCSYDIR
 10
0.0
 20
1.0
 30
0.0
  9
$UCSORTHOREF
  2

  9
$UCSORTHOVIEW
 70
0
  9
$UCSORGTOP
 10
0.0
 20
0.0
 30
0.0
  9
$UCSORGBOTTOM
 10
0.0
 20
0.0
 30
0.0
  9
$UCSORGLEFT
 10
0.0
 20
0.0
 30
0.0
  9
$UCSORGRIGHT
 10
0.0
 20
0.0
 30
0.0
  9
$UCSORGFRONT
 10
0.0
 20
0.0
 30
0.0
  9
$UCSORGBACK
 10
0.0
 20
0.0
 30
0.0
  9
$PUCSBASE
  2

  9
$PUCSNAME
  2

  9
$PUCSORG
 10
0.0
 20
0.0
 30
0.0
  9
$PUCSXDIR
 10
1.0
 20
0.0
 30
0.0
  9
$PUCSYDIR
 10
0.0
 20
1.0
 30
0.0
  9
$PUCSORTHOREF
  2

  9
$PUCSORTHOVIEW
 70
0
  9
$PUCSORGTOP
 10
0.0
 20
0.0
 30
0.0
  9
$PUCSORGBOTTOM
 10
0.0
 20
0.0
 30
0.0
  9
$PUCSORGLEFT
 10
0.0
 20
0.0
 30
0.0
  9
$PUCSORGRIGHT
 10
0.0
 20
0.0
 30
0.0
  9
$PUCSORGFRONT
 10
0.0
 20
0.0
 30
0.0
  9
$PUCSORGBACK
 10
0.0
 20
0.0
 30
0.0
  9
$USERI1
 70
0
  9
$USERI2
 70
0
  9
$USERI3
 70
0
  9
$USERI4
 70
0
  9
$USERI5
 70
0
  9
$USERR1
 40
0.0
  9
$USERR2
 40
0.0
  9
$USERR3
 40
0.0
  9
$USERR4
 40
0.0
  9
$USERR5
 40
0.0
  9
$WORLDVIEW
 70
1
  9
$SHADEDGE
 70
3
  9
$SHADEDIF
 70
70
  9
$TILEMODE
 70
1
  9
$MAXACTVP
 70
64
  9
$PINSBASE
 10
0.0
 20
0.0
 30
0.0
  9
$PLIMCHECK
 70
0
  9
$PEXTMIN
 10
1e+20
 20
1e+20
 30
1e+20
  9
$PEXTMAX
 10
-1e+20
 20
-1e+20
 30
-1e+20
  9
$PLIMMIN
 10
0.0
 20
0.0
  9
$PLIMMAX
 10
420.0
 20
297.0
  9
$UNITMODE
 70
0
  9
$VISRETAIN
 70
1
  9
$PLINEGEN
 70
0
  9
$PSLTSCALE
 70
1
  9
$TREEDEPTH
 70
3020
  9
$CMLSTYLE
  2
Standard
  9
$CMLJUST
 70
0
  9
$CMLSCALE
 40
20.0
  9
$PROXYGRAPHICS
 70
1
  9
$MEASUREMENT
 70
1
  9
$CELWEIGHT
370
-1
  9
$ENDCAPS
280
0
  9
$JOINSTYLE
280
0
  9
$LWDISPLAY
290
0
  9
$INSUNITS
 70
4
  9
$HYPERLINKBASE
  1

  9
$STYLESHEET
  1

  9
$XEDIT
290
1
  9
$CEPSNTYPE
380
0
  9
$PSTYLEMODE
290
1
  9
$FINGERPRINTGUID
  2
{A0017298-6EC8-42E9-ADAD-75E4E633BD41}
  9
$VERSIONGUID
  2
{54DBF503-7DE9-49E8-97C8-158C66C66199}
  9
$EXTNAMES
290
1
  9
$PSVPSCALE
 40
0.0
  9
$OLESTARTUP
290
0
  9
$SORTENTS
280
127
  9
$INDEXCTL
280
0
  9
$HIDETEXT
280
1
  9
$XCLIPFRAME
280
1
  9
$HALOGAP
280
0
  9
$OBSCOLOR
 70
257
  9
$OBSLTYPE
280
0
  9
$INTERSECTIONDISPLAY
280
0
  9
$INTERSECTIONCOLOR
 70
257
  9
$DIMASSOC
280
2
  9
$PROJECTNAME
  1

  9
$CAMERADISPLAY
290
0
  9
$LENSLENGTH
 40
50.0
  9
$CAMERAHEIGHT
 40
0.0
  9
$STEPSPERSEC
 40
24.0
  9
$STEPSIZE
 40
100.0
  9
$3DDWFPREC
 40
2.0
  9
$PSOLWIDTH
 40
0.005
  9
$PSOLHEIGHT
 40
0.08
  9
$LOFTANG1
 40
1.570796326795
  9
$LOFTANG2
 40
1.570796326795
  9
$LOFTMAG1
 40
0.0
  9
$LOFTMAG2
 40
0.0
  9
$LOFTPARAM
 70
7
  9
$LOFTNORMALS
280
1
  9
$LATITUDE
 40
37.795
  9
$LONGITUDE
 40
-122.394
  9
$NORTHDIRECTION
 40
0.0
  9
$TIMEZONE
 70
-8000
  9
$LIGHTGLYPHDISPLAY
280
1
  9
$TILEMODELIGHTSYNCH
280
1
  9
$CMATERIAL
347
20
  9
$SOLIDHIST
280
0
  9
$SHOWHIST
280
1
  9
$DWFFRAME
280
2
  9
$DGNFRAME
280
2
  9
$REALWORLDSCALE
290
1
  9
$INTERFERECOLOR
 62
256
  9
$CSHADOW
280
0
  9
$SHADOWPLANELOCATION
 40
0.0
  0
ENDSEC
  0
SECTION
  2
CLASSES
  0
CLASS
  1
ACDBDICTIONARYWDFLT
  2
AcDbDictionaryWithDefault
  3
ObjectDBX Classes
 90
0
 91
0
280
0
281
0
  0
CLASS
  1
SUN
  2
AcDbSun
  3
SCENEOE
 90
1153
 91
0
280
0
281
0
  0
CLASS
  1
VISUALSTYLE
  2
AcDbVisualStyle
  3
ObjectDBX Classes
 90
4095
 91
0
280
0
281
0
  0
CLASS
  1
MATERIAL
  2
AcDbMaterial
  3
ObjectDBX Classes
 90
1153
 91
0
280
0
281
0
  0
CLASS
  1
SCALE
  2
AcDbScale
  3
ObjectDBX Classes
 90
1153
 91
0
280
0
281
0
  0
CLASS
  1
TABLESTYLE
  2
AcDbTableStyle
  3
ObjectDBX Classes
 90
4095
 91
0
280
0
281
0
  0
CLASS
  1
MLEADERSTYLE
  2
AcDbMLeaderStyle
  3
ACDB_MLEADERSTYLE_CLASS
 90
4095
 91
0
280
0
281
0
  0
CLASS
  1
DICTIONARYVAR
  2
AcDbDictionaryVar
  3
ObjectDBX Classes
 90
0
 91
0
280
0
281
0
  0
CLASS
  1
CELLSTYLEMAP
  2
AcDbCellStyleMap
  3
ObjectDBX Classes
 90
1152
 91
0
280
0
281
0
  0
CLASS
  1
MENTALRAYRENDERSETTINGS
  2
AcDbMentalRayRenderSettings
  3
SCENEOE
 90
1024
 91
0
280
0
281
0
  0
CLASS
  1
ACDBDETAILVIEWSTYLE
  2
AcDbDetailViewStyle
  3
ObjectDBX Classes
 90
1025
 91
0
280
0
281
0
  0
CLASS
  1
ACDBSECTIONVIEWSTYLE
  2
AcDbSectionViewStyle
  3
ObjectDBX Classes
 90
1025
 91
0
280
0
281
0
  0
CLASS
  1
RASTERVARIABLES
  2
AcDbRasterVariables
  3
ISM
 90
0
 91
0
280
0
281
0
  0
CLASS
  1
ACDBPLACEHOLDER
  2
AcDbPlaceHolder
  3
ObjectDBX Classes
 90
0
 91
0
280
0
281
0
  0
CLASS
  1
LAYOUT
  2
AcDbLayout
  3
ObjectDBX Classes
 90
0
 91
0
280
0
281
0
  0
ENDSEC
  0
SECTION
  2
TABLES
  0
TABLE
  2
VPORT
  5
8
330
0
100
AcDbSymbolTable
 70
1
  0
VPORT
  5
23
330
8
100
AcDbSymbolTableRecord
100
AcDbViewportTableRecord
  2
*Active
 70
0
 10
0.0
 20
0.0
 11
1.0
 21
1.0
 12
0.0
 22
0.0
 13
0.0
 23
0.0
 14
0.5
 24
0.5
 15
0.5
 25
0.5
 16
0.0
 26
0.0
 36
1.0
 17
0.0
 27
0.0
 37
0.0
 40
1000.0
 41
1.34
 42
50.0
 43
0.0
 44
0.0
 50
0.0
 51
0.0
 71
0
 72
1000
 73
1
 74
3
 75
0
 76
0
 77
0
 78
0
281
0
 65
0
146
0.0
  0
ENDTAB
  0
TABLE
  2
LTYPE
  5
2
330
0
100
AcDbSymbolTable
 70
3
  0
LTYPE
  5
24
330
2
100
AcDbSymbolTableRecord
100
AcDbLinetypeTableRecord
  2
ByBlock
 70
0
  3

 72
65
 73
0
 40
0.0
  0
LTYPE
  5
25
330
2
100
AcDbSymbolTableRecord
100
AcDbLinetypeTableRecord
  2
ByLayer
 70
0
  3

 72
65
 73
0
 40
0.0
  0
LTYPE
  5
26
330
2
100
AcDbSymbolTableRecord
100
AcDbLinetypeTableRecord
  2
Continuous
 70
0
  3

 72
65
 73
0
 40
0.0
  0
ENDTAB
  0
TABLE
  2
LAYER
  5
1
330
0
100
AcDbSymbolTable
 70
7
  0
LAYER
  5
27
330
1
100
AcDbSymbolTableRecord
100
AcDbLayerTableRecord
  2
0
 70
0
 62
7
  6
Continuous
370
-3
390
13
347
21
  0
LAYER
  5
28
330
1
100
AcDbSymbolTableRecord
100
AcDbLayerTableRecord
  2
Defpoints
 70
0
 62
7
  6
Continuous
290
0
370
-3
390
13
347
21
  0
LAYER
  5
2F
330
1
100
AcDbSymbolTableRecord
100
AcDbLayerTableRecord
  2
OUTLINE
 70
0
 62
7
  6
Continuous
370
-3
390
13
347
21
  0
LAYER
  5
30
330
1
100
AcDbSymbolTableRecord
100
AcDbLayerTableRecord
  2
DIM
 70
0
 62
3
  6
Continuous
370
-3
390
13
347
21
  0
LAYER
  5
31
330
1
100
AcDbSymbolTableRecord
100
AcDbLayerTableRecord
  2
CENTER
 70
0
 62
1
  6
Continuous
370
-3
390
13
347
21
  0
LAYER
  5
32
330
1
100
AcDbSymbolTableRecord
100
AcDbLayerTableRecord
  2
TEXT
 70
0
 62
2
  6
Continuous
370
-3
390
13
347
21
  0
LAYER
  5
33
330
1
100
AcDbSymbolTableRecord
100
AcDbLayerTableRecord
  2
HIDDEN
 70
0
 62
8
  6
DASHED
370
-3
390
13
347
21
  0
ENDTAB
  0
TABLE
  2
STYLE
  5
5
330
0
100
AcDbSymbolTable
 70
1
  0
STYLE
  5
29
330
5
100
AcDbSymbolTableRecord
100
AcDbTextStyleTableRecord
  2
Standard
 70
0
 40
0.0
 41
1.0
 50
0.0
 71
0
 42
2.5
  3
txt
  4

  0
ENDTAB
  0
TABLE
  2
VIEW
  5
7
330
0
100
AcDbSymbolTable
 70
0
  0
ENDTAB
  0
TABLE
  2
UCS
  5
6
330
0
100
AcDbSymbolTable
 70
0
  0
ENDTAB
  0
TABLE
  2
APPID
  5
3
330
0
100
AcDbSymbolTable
 70
3
  0
APPID
  5
2A
330
3
100
AcDbSymbolTableRecord
100
AcDbRegAppTableRecord
  2
ACAD
 70
0
  0
APPID
  5
BF
330
3
100
AcDbSymbolTableRecord
100
AcDbRegAppTableRecord
  2
HATCHBACKGROUNDCOLOR
 70
0
  0
APPID
  5
C0
330
3
100
AcDbSymbolTableRecord
100
AcDbRegAppTableRecord
  2
EZDXF
 70
0
  0
ENDTAB
  0
TABLE
  2
DIMSTYLE
  5
4
330
0
100
AcDbSymbolTable
 70
1
100
AcDbDimStyleTable
  0
DIMSTYLE
105
2B
330
4
100
AcDbSymbolTableRecord
100
AcDbDimStyleTableRecord
  2
Standard
 70
0
 40
1.0
 41
2.5
 42
0.625
 43
3.75
 44
1.25
 45
0.0
 46
0.0
 47
0.0
 48
0.0
 49
2.5
140
2.5
141
2.5
142
0.0
143
0.03937007874
144
1.0
145
0.0
146
1.0
147
0.625
148
0.0
 69
0
 70
0
 71
0
 72
0
 73
0
 74
0
 75
0
 76
0
 77
1
 78
8
 79
3
170
0
171
3
172
1
173
0
174
0
175
0
176
0
177
0
178
0
179
2
271
2
272
2
273
2
274
3
275
0
276
0
277
2
278
44
279
0
280
0
281
0
282
0
283
0
284
8
285
0
286
0
288
0
289
3
290
0
371
-2
372
-2
  0
ENDTAB
  0
TABLE
  2
BLOCK_RECORD
  5
9
330
0
100
AcDbSymbolTable
 70
2
  0
BLOCK_RECORD
  5
17
330
9
100
AcDbSymbolTableRecord
100
AcDbBlockTableRecord
  2
*Model_Space
340
1A
 70
0
280
1
281
0
  0
BLOCK_RECORD
  5
1B
330
9
100
AcDbSymbolTableRecord
100
AcDbBlockTableRecord
  2
*Paper_Space
340
1E
 70
0
280
1
281
0
  0
ENDTAB
  0
ENDSEC
  0
SECTION
  2
BLOCKS
  0
BLOCK
  5
18
330
17
100
AcDbEntity
  8
0
100
AcDbBlockBegin
  2
*Model_Space
 70
0
 10
0.0
 20
0.0
 30
0.0
  3
*Model_Space
  1

  0
ENDBLK
  5
19
330
17
100
AcDbEntity
  8
0
100
AcDbBlockEnd
  0
BLOCK
  5
1C
330
1B
100
AcDbEntity
  8
0
100
AcDbBlockBegin
  2
*Paper_Space
 70
0
 10
0.0
 20
0.0
 30
0.0
  3
*Paper_Space
  1

  0
ENDBLK
  5
1D
330
1B
100
AcDbEntity
  8
0
100
AcDbBlockEnd
  0
ENDSEC
  0
SECTION
  2
ENTITIES
  0
LWPOLYLINE
  5
34
330
17
100
AcDbEntity
  8
OUTLINE
100
AcDbPolyline
 90
5
 70
0
 10
10.0
 20
10.0
 10
190.0
 20
10.0
 10
190.0
 20
50.0
 10
10.0
 20
50.0
 10
10.0
 20
10.0
  0
TEXT
  5
35
330
17
100
AcDbEntity
  8
TEXT
100
AcDbText
 10
15.0
 20
38.0
 30
0.0
 40
3.5
  1
DWG NO: DWG-006
 11
15.0
 21
38.0
 31
0.0
100
AcDbText
  0
TEXT
  5
36
330
17
100
AcDbEntity
  8
TEXT
100
AcDbText
 10
15.0
 20
30.0
 30
0.0
 40
3.5
  1
PROTOTYPE WHOLE TOOL DETAILED
 11
15.0
 21
30.0
 31
0.0
100
AcDbText
  0
TEXT
  5
37
330
17
100
AcDbEntity
  8
TEXT
100
AcDbText
 10
15.0
 20
22.0
 30
0.0
 40
3.5
  1
SHEX-BP-UHEX-54
 11
15.0
 21
22.0
 31
0.0
100
AcDbText
  0
TEXT
  5
38
330
17
100
AcDbEntity
  8
TEXT
100
AcDbText
 10
140.0
 20
38.0
 30
0.0
 40
3.5
  1
REV: A
 11
140.0
 21
38.0
 31
0.0
100
AcDbText
  0
TEXT
  5
39
330
17
100
AcDbEntity
  8
TEXT
100
AcDbText
 10
140.0
 20
22.0
 30
0.0
 40
3.5
  1
UNLESS NOTED: mm
 11
140.0
 21
22.0
 31
0.0
100
AcDbText
  0
TEXT
  5
3A
330
17
100
AcDbEntity
  8
TEXT
100
AcDbText
 10
15.0
 20
14.0
 30
0.0
 40
3.5
  1
MATL: 17-4 PH H900
 11
15.0
 21
14.0
 31
0.0
100
AcDbText
  0
TEXT
  5
3B
330
17
100
AcDbEntity
  8
TEXT
100
AcDbText
 10
40.0
 20
320.0
 30
0.0
 40
4.0
  1
VIEW 1 - RUN-IN ELEVATION (THRU-TUBING)
 11
40.0
 21
320.0
 31
0.0
100
AcDbText
  0
TEXT
  5
3C
330
17
100
AcDbEntity
  8
TEXT
100
AcDbText
 10
40.0
 20
313.0
 30
0.0
 40
2.5
  1
BOTTOM (MANDREL TAIL) AT LEFT
 11
40.0
 21
313.0
 31
0.0
100
AcDbText
  0
LINE
  5
3D
330
17
100
AcDbEntity
  8
CENTER
  6
CENTER
100
AcDbLine
 10
30.0
 20
280.0
 30
0.0
 11
530.06
 21
280.0
 31
0.0
  0
LWPOLYLINE
  5
3E
330
17
100
AcDbEntity
  8
OUTLINE
100
AcDbPolyline
 90
23
 70
0
 10
40.0
 20
280.0
 10
40.0
 20
281.74879
 10
66.66999999999999
 20
281.74879
 10
66.66999999999999
 20
282.1866352
 10
84.44999999999999
 20
282.1866352
 10
84.44999999999999
 20
282.1866352
 10
124.45499999999998
 20
282.1866352
 10
124.45499999999998
 20
282.1866352
 10
160.015
 20
282.1866352
 10
160.015
 20
282.1866352
 10
204.46499999999997
 20
282.1866352
 10
204.46499999999997
 20
282.1866352
 10
271.14
 20
282.1866352
 10
271.14
 20
282.1866352
 10
431.15999999999997
 20
282.1866352
 10
431.15999999999997
 20
282.1866352
 10
453.385
 20
282.1866352
 10
453.385
 20
282.1866352
 10
493.39
 20
282.1866352
 10
493.39
 20
281.781175
 10
520.06
 20
281.781175
 10
520.06
 20
280.0
 10
40.0
 20
280.0
  0
LWPOLYLINE
  5
3F
330
17
100
AcDbEntity
  8
HIDDEN
  6
DASHED
100
AcDbPolyline
 90
16
 70
0
 10
66.66999999999999
 20
280.97155
 10
84.44999999999999
 20
280.97155
 10
84.44999999999999
 20
282.00787
 10
124.45499999999998
 20
282.00787
 10
124.45499999999998
 20
282.00787
 10
160.015
 20
282.00787
 10
160.015
 20
282.00787
 10
204.46499999999997
 20
282.00787
 10
204.46499999999997
 20
282.00787
 10
271.14
 20
282.00787
 10
271.14
 20
282.00787
 10
431.15999999999997
 20
282.00787
 10
431.15999999999997
 20
282.00787
 10
453.385
 20
282.00787
 10
453.385
 20
282.00787
 10
493.39
 20
282.00787
  0
LINE
  5
40
330
17
100
AcDbEntity
  8
CENTER
  6
CENTER
100
AcDbLine
 10
40.0
 20
277.0
 30
0.0
 11
40.0
 21
283.0
 31
0.0
  0
LINE
  5
41
330
17
100
AcDbEntity
  8
CENTER
  6
CENTER
100
AcDbLine
 10
66.66999999999999
 20
277.0
 30
0.0
 11
66.66999999999999
 21
283.0
 31
0.0
  0
LINE
  5
42
330
17
100
AcDbEntity
  8
CENTER
  6
CENTER
100
AcDbLine
 10
84.44999999999999
 20
277.0
 30
0.0
 11
84.44999999999999
 21
283.0
 31
0.0
  0
LINE
  5
43
330
17
100
AcDbEntity
  8
CENTER
  6
CENTER
100
AcDbLine
 10
124.45499999999998
 20
277.0
 30
0.0
 11
124.45499999999998
 21
283.0
 31
0.0
  0
LINE
  5
44
330
17
100
AcDbEntity
  8
CENTER
  6
CENTER
100
AcDbLine
 10
160.015
 20
277.0
 30
0.0
 11
160.015
 21
283.0
 31
0.0
  0
LINE
  5
45
330
17
100
AcDbEntity
  8
CENTER
  6
CENTER
100
AcDbLine
 10
204.46499999999997
 20
277.0
 30
0.0
 11
204.46499999999997
 21
283.0
 31
0.0
  0
LINE
  5
46
330
17
100
AcDbEntity
  8
CENTER
  6
CENTER
100
AcDbLine
 10
271.14
 20
277.0
 30
0.0
 11
271.14
 21
283.0
 31
0.0
  0
LINE
  5
47
330
17
100
AcDbEntity
  8
CENTER
  6
CENTER
100
AcDbLine
 10
431.15999999999997
 20
277.0
 30
0.0
 11
431.15999999999997
 21
283.0
 31
0.0
  0
LINE
  5
48
330
17
100
AcDbEntity
  8
CENTER
  6
CENTER
100
AcDbLine
 10
453.385
 20
277.0
 30
0.0
 11
453.385
 21
283.0
 31
0.0
  0
LINE
  5
49
330
17
100
AcDbEntity
  8
CENTER
  6
CENTER
100
AcDbLine
 10
493.39
 20
277.0
 30
0.0
 11
493.39
 21
283.0
 31
0.0
  0
LINE
  5
4A
330
17
100
AcDbEntity
  8
CENTER
  6
CENTER
100
AcDbLine
 10
520.06
 20
277.0
 30
0.0
 11
520.06
 21
283.0
 31
0.0
  0
TEXT
  5
4B
330
17
100
AcDbEntity
  8
DIM
100
AcDbText
 10
53.334999999999994
 20
272.0
 30
0.0
 40
2.2
  1
1
 11
53.334999999999994
 21
272.0
 31
0.0
100
AcDbText
  0
TEXT
  5
4C
330
17
100
AcDbEntity
  8
DIM
100
AcDbText
 10
75.55999999999999
 20
272.0
 30
0.0
 40
2.2
  1
2
 11
75.55999999999999
 21
272.0
 31
0.0
100
AcDbText
  0
TEXT
  5
4D
330
17
100
AcDbEntity
  8
TEXT
100
AcDbText
 10
86.44999999999999
 20
287.1866352
 30
0.0
 40
2.0
  1
LOWER SLIPS
 11
86.44999999999999
 21
287.1866352
 31
0.0
100
AcDbText
  0
TEXT
  5
4E
330
17
100
AcDbEntity
  8
DIM
100
AcDbText
 10
104.45249999999999
 20
272.0
 30
0.0
 40
2.2
  1
3
 11
104.45249999999999
 21
272.0
 31
0.0
100
AcDbText
  0
TEXT
  5
4F
330
17
100
AcDbEntity
  8
TEXT
100
AcDbText
 10
126.45499999999998
 20
287.1866352
 30
0.0
 40
2.0
  1
STG1
 11
126.45499999999998
 21
287.1866352
 31
0.0
100
AcDbText
  0
TEXT
  5
50
330
17
100
AcDbEntity
  8
DIM
100
AcDbText
 10
142.23499999999999
 20
272.0
 30
0.0
 40
2.2
  1
4
 11
142.23499999999999
 21
272.0
 31
0.0
100
AcDbText
  0
TEXT
  5
51
330
17
100
AcDbEntity
  8
TEXT
100
AcDbText
 10
162.015
 20
287.1866352
 30
0.0
 40
2.0
  1
STG2
 11
162.015
 21
287.1866352
 31
0.0
100
AcDbText
  0
TEXT
  5
52
330
17
100
AcDbEntity
  8
DIM
100
AcDbText
 10
182.23999999999998
 20
272.0
 30
0.0
 40
2.2
  1
5
 11
182.23999999999998
 21
272.0
 31
0.0
100
AcDbText
  0
TEXT
  5
53
330
17
100
AcDbEntity
  8
TEXT
100
AcDbText
 10
206.46499999999997
 20
287.1866352
 30
0.0
 40
2.0
  1
STG3 IRIS
 11
206.46499999999997
 21
287.1866352
 31
0.0
100
AcDbText
  0
TEXT
  5
54
330
17
100
AcDbEntity
  8
DIM
100
AcDbText
 10
237.80249999999998
 20
272.0
 30
0.0
 40
2.2
  1
6
 11
237.80249999999998
 21
272.0
 31
0.0
100
AcDbText
  0
TEXT
  5
55
330
17
100
AcDbEntity
  8
TEXT
100
AcDbText
 10
273.14
 20
287.1866352
 30
0.0
 40
2.0
  1
SEAL x4
 11
273.14
 21
287.1866352
 31
0.0
100
AcDbText
  0
TEXT
  5
56
330
17
100
AcDbEntity
  8
DIM
100
AcDbText
 10
351.15
 20
272.0
 30
0.0
 40
2.2
  1
7
 11
351.15
 21
272.0
 31
0.0
100
AcDbText
  0
TEXT
  5
57
330
17
100
AcDbEntity
  8
DIM
100
AcDbText
 10
442.2725
 20
272.0
 30
0.0
 40
2.2
  1
8
 11
442.2725
 21
272.0
 31
0.0
100
AcDbText
  0
TEXT
  5
58
330
17
100
AcDbEntity
  8
TEXT
100
AcDbText
 10
455.385
 20
287.1866352
 30
0.0
 40
2.0
  1
UPPER SLIPS
 11
455.385
 21
287.1866352
 31
0.0
100
AcDbText
  0
TEXT
  5
59
330
17
100
AcDbEntity
  8
DIM
100
AcDbText
 10
473.3875
 20
272.0
 30
0.0
 40
2.2
  1
9
 11
473.3875
 21
272.0
 31
0.0
100
AcDbText
  0
TEXT
  5
5A
330
17
100
AcDbEntity
  8
TEXT
100
AcDbText
 10
495.39
 20
286.781175
 30
0.0
 40
2.0
  1
FISH NECK
 11
495.39
 21
286.781175
 31
0.0
100
AcDbText
  0
TEXT
  5
5B
330
17
100
AcDbEntity
  8
DIM
100
AcDbText
 10
506.72499999999997
 20
272.0
 30
0.0
 40
2.2
  1
10
 11
506.72499999999997
 21
272.0
 31
0.0
100
AcDbText
  0
TEXT
  5
5C
330
17
100
AcDbEntity
  8
DIM
100
AcDbText
 10
40.0
 20
260.0
 30
0.0
 40
3.0
  1
OD 42.9 mm (1.688 IN) MAX RUN-IN
 11
40.0
 21
260.0
 31
0.0
100
AcDbText
  0
TEXT
  5
5D
330
17
100
AcDbEntity
  8
DIM
100
AcDbText
 10
40.0
 20
252.0
 30
0.0
 40
3.0
  1
L = 1371.6 mm (54.0 IN)
 11
40.0
 21
252.0
 31
0.0
100
AcDbText
  0
TEXT
  5
5E
330
17
100
AcDbEntity
  8
TEXT
100
AcDbText
 10
40.0
 20
295.0
 30
0.0
 40
4.0
  1
VIEW 2 - SET ELEVATION (9-5/8 IN 40# CSG)
 11
40.0
 21
295.0
 31
0.0
100
AcDbText
  0
TEXT
  5
5F
330
17
100
AcDbEntity
  8
TEXT
100
AcDbText
 10
40.0
 20
288.0
 30
0.0
 40
2.5
  1
BOTTOM (MANDREL TAIL) AT LEFT
 11
40.0
 21
288.0
 31
0.0
100
AcDbText
  0
LINE
  5
60
330
17
100
AcDbEntity
  8
CENTER
  6
CENTER
100
AcDbLine
 10
30.0
 20
170.0
 30
0.0
 11
530.06
 21
170.0
 31
0.0
  0
LWPOLYLINE
  5
61
330
17
100
AcDbEntity
  8
OUTLINE
100
AcDbPolyline
 90
29
 70
0
 10
40.0
 20
170.0
 10
40.0
 20
172.0574
 10
66.66999999999999
 20
172.0574
 10
66.66999999999999
 20
172.572512
 10
84.44999999999999
 20
172.572512
 10
84.44999999999999
 20
183.28928
 10
124.45499999999998
 20
183.28928
 10
124.45499999999998
 20
175.1435
 10
160.015
 20
175.1435
 10
160.015
 20
178.763
 10
204.46499999999997
 20
178.763
 10
204.46499999999997
 20
183.1826
 10
271.14
 20
183.1826
 10
271.14
 20
183.28928
 10
311.145
 20
183.28928
 10
311.145
 20
183.28928
 10
351.15
 20
183.28928
 10
351.15
 20
183.28928
 10
391.155
 20
183.28928
 10
391.155
 20
183.28928
 10
431.15999999999997
 20
183.28928
 10
431.15999999999997
 20
183.4112
 10
453.385
 20
183.4112
 10
453.385
 20
183.28928
 10
493.39
 20
183.28928
 10
493.39
 20
172.0955
 10
520.06
 20
172.0955
 10
520.06
 20
170.0
 10
40.0
 20
170.0
  0
LWPOLYLINE
  5
62
330
17
100
AcDbEntity
  8
HIDDEN
  6
DASHED
100
AcDbPolyline
 90
22
 70
0
 10
66.66999999999999
 20
171.143
 10
84.44999999999999
 20
171.143
 10
84.44999999999999
 20
172.3622
 10
124.45499999999998
 20
172.3622
 10
124.45499999999998
 20
172.2098
 10
160.015
 20
172.2098
 10
160.015
 20
175.1435
 10
204.46499999999997
 20
175.1435
 10
204.46499999999997
 20
178.763
 10
271.14
 20
178.763
 10
271.14
 20
172.3622
 10
311.145
 20
172.3622
 10
311.145
 20
172.3622
 10
351.15
 20
172.3622
 10
351.15
 20
172.3622
 10
391.155
 20
172.3622
 10
391.155
 20
172.3622
 10
431.15999999999997
 20
172.3622
 10
431.15999999999997
 20
182.8016
 10
453.385
 20
182.8016
 10
453.385
 20
172.3622
 10
493.39
 20
172.3622
  0
LINE
  5
63
330
17
100
AcDbEntity
  8
CENTER
  6
CENTER
100
AcDbLine
 10
40.0
 20
167.0
 30
0.0
 11
40.0
 21
173.0
 31
0.0
  0
LINE
  5
64
330
17
100
AcDbEntity
  8
CENTER
  6
CENTER
100
AcDbLine
 10
66.66999999999999
 20
167.0
 30
0.0
 11
66.66999999999999
 21
173.0
 31
0.0
  0
LINE
  5
65
330
17
100
AcDbEntity
  8
CENTER
  6
CENTER
100
AcDbLine
 10
84.44999999999999
 20
167.0
 30
0.0
 11
84.44999999999999
 21
173.0
 31
0.0
  0
LINE
  5
66
330
17
100
AcDbEntity
  8
CENTER
  6
CENTER
100
AcDbLine
 10
124.45499999999998
 20
167.0
 30
0.0
 11
124.45499999999998
 21
173.0
 31
0.0
  0
LINE
  5
67
330
17
100
AcDbEntity
  8
CENTER
  6
CENTER
100
AcDbLine
 10
160.015
 20
167.0
 30
0.0
 11
160.015
 21
173.0
 31
0.0
  0
LINE
  5
68
330
17
100
AcDbEntity
  8
CENTER
  6
CENTER
100
AcDbLine
 10
204.46499999999997
 20
167.0
 30
0.0
 11
204.46499999999997
 21
173.0
 31
0.0
  0
LINE
  5
69
330
17
100
AcDbEntity
  8
CENTER
  6
CENTER
100
AcDbLine
 10
271.14
 20
167.0
 30
0.0
 11
271.14
 21
173.0
 31
0.0
  0
LINE
  5
6A
330
17
100
AcDbEntity
  8
CENTER
  6
CENTER
100
AcDbLine
 10
311.145
 20
167.0
 30
0.0
 11
311.145
 21
173.0
 31
0.0
  0
LINE
  5
6B
330
17
100
AcDbEntity
  8
CENTER
  6
CENTER
100
AcDbLine
 10
351.15
 20
167.0
 30
0.0
 11
351.15
 21
173.0
 31
0.0
  0
LINE
  5
6C
330
17
100
AcDbEntity
  8
CENTER
  6
CENTER
100
AcDbLine
 10
391.155
 20
167.0
 30
0.0
 11
391.155
 21
173.0
 31
0.0
  0
LINE
  5
6D
330
17
100
AcDbEntity
  8
CENTER
  6
CENTER
100
AcDbLine
 10
431.15999999999997
 20
167.0
 30
0.0
 11
431.15999999999997
 21
173.0
 31
0.0
  0
LINE
  5
6E
330
17
100
AcDbEntity
  8
CENTER
  6
CENTER
100
AcDbLine
 10
453.385
 20
167.0
 30
0.0
 11
453.385
 21
173.0
 31
0.0
  0
LINE
  5
6F
330
17
100
AcDbEntity
  8
CENTER
  6
CENTER
100
AcDbLine
 10
493.39
 20
167.0
 30
0.0
 11
493.39
 21
173.0
 31
0.0
  0
LINE
  5
70
330
17
100
AcDbEntity
  8
CENTER
  6
CENTER
100
AcDbLine
 10
520.06
 20
167.0
 30
0.0
 11
520.06
 21
173.0
 31
0.0
  0
TEXT
  5
71
330
17
100
AcDbEntity
  8
DIM
100
AcDbText
 10
53.334999999999994
 20
162.0
 30
0.0
 40
2.2
  1
1
 11
53.334999999999994
 21
162.0
 31
0.0
100
AcDbText
  0
TEXT
  5
72
330
17
100
AcDbEntity
  8
DIM
100
AcDbText
 10
75.55999999999999
 20
162.0
 30
0.0
 40
2.2
  1
2
 11
75.55999999999999
 21
162.0
 31
0.0
100
AcDbText
  0
TEXT
  5
73
330
17
100
AcDbEntity
  8
TEXT
100
AcDbText
 10
86.44999999999999
 20
188.28928
 30
0.0
 40
2.0
  1
LOWER SLIPS
 11
86.44999999999999
 21
188.28928
 31
0.0
100
AcDbText
  0
TEXT
  5
74
330
17
100
AcDbEntity
  8
DIM
100
AcDbText
 10
104.45249999999999
 20
162.0
 30
0.0
 40
2.2
  1
3
 11
104.45249999999999
 21
162.0
 31
0.0
100
AcDbText
  0
TEXT
  5
75
330
17
100
AcDbEntity
  8
TEXT
100
AcDbText
 10
126.45499999999998
 20
180.1435
 30
0.0
 40
2.0
  1
STG1 INNER
 11
126.45499999999998
 21
180.1435
 31
0.0
100
AcDbText
  0
TEXT
  5
76
330
17
100
AcDbEntity
  8
DIM
100
AcDbText
 10
142.23499999999999
 20
162.0
 30
0.0
 40
2.2
  1
4
 11
142.23499999999999
 21
162.0
 31
0.0
100
AcDbText
  0
TEXT
  5
77
330
17
100
AcDbEntity
  8
TEXT
100
AcDbText
 10
162.015
 20
183.763
 30
0.0
 40
2.0
  1
STG2 MIDDLE
 11
162.015
 21
183.763
 31
0.0
100
AcDbText
  0
TEXT
  5
78
330
17
100
AcDbEntity
  8
DIM
100
AcDbText
 10
182.23999999999998
 20
162.0
 30
0.0
 40
2.2
  1
5
 11
182.23999999999998
 21
162.0
 31
0.0
100
AcDbText
  0
TEXT
  5
79
330
17
100
AcDbEntity
  8
TEXT
100
AcDbText
 10
206.46499999999997
 20
188.1826
 30
0.0
 40
2.0
  1
STG3 IRIS
 11
206.46499999999997
 21
188.1826
 31
0.0
100
AcDbText
  0
TEXT
  5
7A
330
17
100
AcDbEntity
  8
DIM
100
AcDbText
 10
237.80249999999998
 20
162.0
 30
0.0
 40
2.2
  1
6
 11
237.80249999999998
 21
162.0
 31
0.0
100
AcDbText
  0
TEXT
  5
7B
330
17
100
AcDbEntity
  8
TEXT
100
AcDbText
 10
273.14
 20
188.28928
 30
0.0
 40
2.0
  1
SEAL LAND 1
 11
273.14
 21
188.28928
 31
0.0
100
AcDbText
  0
TEXT
  5
7C
330
17
100
AcDbEntity
  8
DIM
100
AcDbText
 10
291.1425
 20
162.0
 30
0.0
 40
2.2
  1
7
 11
291.1425
 21
162.0
 31
0.0
100
AcDbText
  0
TEXT
  5
7D
330
17
100
AcDbEntity
  8
TEXT
100
AcDbText
 10
313.145
 20
188.28928
 30
0.0
 40
2.0
  1
SEAL LAND 2
 11
313.145
 21
188.28928
 31
0.0
100
AcDbText
  0
TEXT
  5
7E
330
17
100
AcDbEntity
  8
DIM
100
AcDbText
 10
331.1475
 20
162.0
 30
0.0
 40
2.2
  1
8
 11
331.1475
 21
162.0
 31
0.0
100
AcDbText
  0
TEXT
  5
7F
330
17
100
AcDbEntity
  8
TEXT
100
AcDbText
 10
353.15
 20
188.28928
 30
0.0
 40
2.0
  1
SEAL LAND 3
 11
353.15
 21
188.28928
 31
0.0
100
AcDbText
  0
TEXT
  5
80
330
17
100
AcDbEntity
  8
DIM
100
AcDbText
 10
371.1525
 20
162.0
 30
0.0
 40
2.2
  1
9
 11
371.1525
 21
162.0
 31
0.0
100
AcDbText
  0
TEXT
  5
81
330
17
100
AcDbEntity
  8
TEXT
100
AcDbText
 10
393.155
 20
188.28928
 30
0.0
 40
2.0
  1
SEAL LAND 4
 11
393.155
 21
188.28928
 31
0.0
100
AcDbText
  0
TEXT
  5
82
330
17
100
AcDbEntity
  8
DIM
100
AcDbText
 10
411.15749999999997
 20
162.0
 30
0.0
 40
2.2
  1
10
 11
411.15749999999997
 21
162.0
 31
0.0
100
AcDbText
  0
TEXT
  5
83
330
17
100
AcDbEntity
  8
TEXT
100
AcDbText
 10
433.15999999999997
 20
188.4112
 30
0.0
 40
2.0
  1
UPPER MTM
 11
433.15999999999997
 21
188.4112
 31
0.0
100
AcDbText
  0
TEXT
  5
84
330
17
100
AcDbEntity
  8
DIM
100
AcDbText
 10
442.2725
 20
162.0
 30
0.0
 40
2.2
  1
11
 11
442.2725
 21
162.0
 31
0.0
100
AcDbText
  0
TEXT
  5
85
330
17
100
AcDbEntity
  8
TEXT
100
AcDbText
 10
455.385
 20
188.28928
 30
0.0
 40
2.0
  1
UPPER SLIPS
 11
455.385
 21
188.28928
 31
0.0
100
AcDbText
  0
TEXT
  5
86
330
17
100
AcDbEntity
  8
DIM
100
AcDbText
 10
473.3875
 20
162.0
 30
0.0
 40
2.2
  1
12
 11
473.3875
 21
162.0
 31
0.0
100
AcDbText
  0
TEXT
  5
87
330
17
100
AcDbEntity
  8
TEXT
100
AcDbText
 10
495.39
 20
177.0955
 30
0.0
 40
2.0
  1
FISH NECK
 11
495.39
 21
177.0955
 31
0.0
100
AcDbText
  0
TEXT
  5
88
330
17
100
AcDbEntity
  8
DIM
100
AcDbText
 10
506.72499999999997
 20
162.0
 30
0.0
 40
2.2
  1
13
 11
506.72499999999997
 21
162.0
 31
0.0
100
AcDbText
  0
LINE
  5
89
330
17
100
AcDbEntity
  8
DIM
  6
DASHDOT
100
AcDbLine
 10
40.0
 20
183.226796
 30
0.0
 11
520.06
 21
183.226796
 31
0.0
  0
TEXT
  5
8A
330
17
100
AcDbEntity
  8
DIM
100
AcDbText
 10
80.0
 20
187.226796
 30
0.0
 40
2.5
  1
CSG DRIFT ID 8.679
 11
80.0
 21
187.226796
 31
0.0
100
AcDbText
  0
TEXT
  5
8B
330
17
100
AcDbEntity
  8
DIM
100
AcDbText
 10
40.0
 20
152.0
 30
0.0
 40
3.0
  1
MAX SET OD 219.7 mm (8.650 IN)
 11
40.0
 21
152.0
 31
0.0
100
AcDbText
  0
TEXT
  5
8C
330
17
100
AcDbEntity
  8
TEXT
100
AcDbText
 10
40.0
 20
110.0
 30
0.0
 40
3.5
  1
SECTION A-A  (SEAL + MTM)
 11
40.0
 21
110.0
 31
0.0
100
AcDbText
  0
CIRCLE
  5
8D
330
17
100
AcDbEntity
  8
OUTLINE
100
AcDbCircle
 10
80.0
 20
80.0
 30
0.0
 40
110.744
  0
CIRCLE
  5
8E
330
17
100
AcDbEntity
  8
HIDDEN
100
AcDbCircle
 10
80.0
 20
80.0
 30
0.0
 40
19.685
  0
LINE
  5
8F
330
17
100
AcDbEntity
  8
OUTLINE
100
AcDbLine
 10
99.685
 20
80.0
 30
0.0
 11
181.88448
 21
80.0
 31
0.0
  0
LINE
  5
90
330
17
100
AcDbEntity
  8
OUTLINE
100
AcDbLine
 10
93.9193969876572
 20
93.9193969876572
 30
0.0
 11
152.04320670566517
 21
152.04320670566517
 31
0.0
  0
LINE
  5
91
330
17
100
AcDbEntity
  8
OUTLINE
100
AcDbLine
 10
80.0
 20
99.685
 30
0.0
 11
80.0
 21
181.88448
 31
0.0
  0
LINE
  5
92
330
17
100
AcDbEntity
  8
OUTLINE
100
AcDbLine
 10
66.08060301234282
 20
93.9193969876572
 30
0.0
 11
7.956793294334815
 21
152.04320670566517
 31
0.0
  0
LINE
  5
93
330
17
100
AcDbEntity
  8
OUTLINE
100
AcDbLine
 10
60.315
 20
80.0
 30
0.0
 11
-21.88448000000001
 21
80.00000000000001
 31
0.0
  0
LINE
  5
94
330
17
100
AcDbEntity
  8
OUTLINE
100
AcDbLine
 10
66.0806030123428
 20
66.08060301234282
 30
0.0
 11
7.956793294334801
 21
7.956793294334815
 31
0.0
  0
LINE
  5
95
330
17
100
AcDbEntity
  8
OUTLINE
100
AcDbLine
 10
80.0
 20
60.315
 30
0.0
 11
79.99999999999999
 21
-21.88448000000001
 31
0.0
  0
LINE
  5
96
330
17
100
AcDbEntity
  8
OUTLINE
100
AcDbLine
 10
93.91939698765718
 20
66.0806030123428
 30
0.0
 11
152.04320670566517
 21
7.956793294334801
 31
0.0
  0
TEXT
  5
97
330
17
100
AcDbEntity
  8
TEXT
100
AcDbText
 10
40.0
 20
55.0
 30
0.0
 40
2.5
  1
HNBR + 16 PETALS
 11
40.0
 21
55.0
 31
0.0
100
AcDbText
  0
TEXT
  5
98
330
17
100
AcDbEntity
  8
TEXT
100
AcDbText
 10
160.0
 20
110.0
 30
0.0
 40
3.5
  1
SECTION B-B  (STG3 IRIS)
 11
160.0
 21
110.0
 31
0.0
100
AcDbText
  0
LINE
  5
99
330
17
100
AcDbEntity
  8
OUTLINE
100
AcDbLine
 10
268.025
 20
80.0
 30
0.0
 11
298.7916682346189
 21
115.99181337574984
 31
0.0
  0
LINE
  5
9A
330
17
100
AcDbEntity
  8
OUTLINE
100
AcDbLine
 10
262.4663028616367
 20
107.94545764846067
 30
0.0
 11
277.11752724749056
 21
152.97145156674384
 31
0.0
  0
LINE
  5
9B
330
17
100
AcDbEntity
  8
OUTLINE
100
AcDbLine
 10
246.63647269614762
 20
131.63647269614762
 30
0.0
 11
242.94173713416998
 21
178.8418477445568
 31
0.0
  0
LINE
  5
9C
330
17
100
AcDbEntity
  8
OUTLINE
100
AcDbLine
 10
222.9454576484607
 20
147.4663028616367
 30
0.0
 11
201.46725213510138
 21
189.66446860684198
 31
0.0
  0
LINE
  5
9D
330
17
100
AcDbEntity
  8
OUTLINE
100
AcDbLine
 10
195.0
 20
153.02499999999998
 30
0.0
 11
159.0081866242502
 21
183.7916682346189
 31
0.0
  0
LINE
  5
9E
330
17
100
AcDbEntity
  8
OUTLINE
100
AcDbLine
 10
167.05454235153934
 20
147.4663028616367
 30
0.0
 11
122.02854843325615
 21
162.11752724749056
 31
0.0
  0
LINE
  5
9F
330
17
100
AcDbEntity
  8
OUTLINE
100
AcDbLine
 10
143.36352730385238
 20
131.63647269614762
 30
0.0
 11
96.15815225544321
 21
127.94173713417
 31
0.0
  0
LINE
  5
A0
330
17
100
AcDbEntity
  8
OUTLINE
100
AcDbLine
 10
127.5336971383633
 20
107.94545764846069
 30
0.0
 11
85.33553139315802
 21
86.46725213510138
 31
0.0
  0
LINE
  5
A1
330
17
100
AcDbEntity
  8
OUTLINE
100
AcDbLine
 10
121.97500000000001
 20
80.00000000000001
 30
0.0
 11
91.2083317653811
 21
44.00818662425016
 31
0.0
  0
LINE
  5
A2
330
17
100
AcDbEntity
  8
OUTLINE
100
AcDbLine
 10
127.53369713836328
 20
52.054542351539325
 30
0.0
 11
112.88247275250943
 21
7.028548433256148
 31
0.0
  0
LINE
  5
A3
330
17
100
AcDbEntity
  8
OUTLINE
100
AcDbLine
 10
143.36352730385235
 20
28.36352730385238
 30
0.0
 11
147.05826286583
 21
-18.841847744556787
 31
0.0
  0
LINE
  5
A4
330
17
100
AcDbEntity
  8
OUTLINE
100
AcDbLine
 10
167.05454235153934
 20
12.53369713836328
 30
0.0
 11
188.53274786489857
 21
-29.664468606841965
 31
0.0
  0
LINE
  5
A5
330
17
100
AcDbEntity
  8
OUTLINE
100
AcDbLine
 10
195.0
 20
6.9750000000000085
 30
0.0
 11
230.99181337574984
 21
-23.791668234618896
 31
0.0
  0
LINE
  5
A6
330
17
100
AcDbEntity
  8
OUTLINE
100
AcDbLine
 10
222.9454576484607
 20
12.533697138363308
 30
0.0
 11
267.9714515667439
 21
-2.1175272474905427
 31
0.0
  0
LINE
  5
A7
330
17
100
AcDbEntity
  8
OUTLINE
100
AcDbLine
 10
246.63647269614762
 20
28.363527303852358
 30
0.0
 11
293.8418477445568
 21
32.058262865829995
 31
0.0
  0
LINE
  5
A8
330
17
100
AcDbEntity
  8
OUTLINE
100
AcDbLine
 10
262.46630286163673
 20
52.05454235153934
 30
0.0
 11
304.664468606842
 21
73.53274786489867
 31
0.0
  0
CIRCLE
  5
A9
330
17
100
AcDbEntity
  8
CENTER
100
AcDbCircle
 10
195.0
 20
80.0
 30
0.0
 40
73.02499999999999
  0
TEXT
  5
AA
330
17
100
AcDbEntity
  8
TEXT
100
AcDbText
 10
160.0
 20
55.0
 30
0.0
 40
2.5
  1
16 SEG @ 22.5
 11
160.0
 21
55.0
 31
0.0
100
AcDbText
  0
TEXT
  5
AB
330
17
100
AcDbEntity
  8
TEXT
100
AcDbText
 10
320.0
 20
250.0
 30
0.0
 40
4.0
  1
DIMENSION TABLE (in)
 11
320.0
 21
250.0
 31
0.0
100
AcDbText
  0
TEXT
  5
AC
330
17
100
AcDbEntity
  8
TEXT
100
AcDbText
 10
320.0
 20
238.0
 30
0.0
 40
2.3
  1
      ITEM      LENGTH          OD          ID
 11
320.0
 21
238.0
 31
0.0
100
AcDbText
  0
TEXT
  5
AD
330
17
100
AcDbEntity
  8
TEXT
100
AcDbText
 10
320.0
 20
231.0
 30
0.0
 40
2.3
  1
 Fish neck        3.00       1.375           -
 11
320.0
 21
231.0
 31
0.0
100
AcDbText
  0
TEXT
  5
AE
330
17
100
AcDbEntity
  8
TEXT
100
AcDbText
 10
320.0
 20
224.0
 30
0.0
 40
2.3
  1
Upper slips        4.50        8.72        1.55
 11
320.0
 21
224.0
 31
0.0
100
AcDbText
  0
TEXT
  5
AF
330
17
100
AcDbEntity
  8
TEXT
100
AcDbText
 10
320.0
 20
217.0
 30
0.0
 40
2.3
  1
 Upper MTM        2.50        8.80        8.40
 11
320.0
 21
217.0
 31
0.0
100
AcDbText
  0
TEXT
  5
B0
330
17
100
AcDbEntity
  8
TEXT
100
AcDbText
 10
320.0
 20
210.0
 30
0.0
 40
2.3
  1
Seal land (x4)        4.50        8.72        1.55
 11
320.0
 21
210.0
 31
0.0
100
AcDbText
  0
TEXT
  5
B1
330
17
100
AcDbEntity
  8
TEXT
100
AcDbText
 10
320.0
 20
203.0
 30
0.0
 40
2.3
  1
Stage 3 iris        7.50       8.650       5.750
 11
320.0
 21
203.0
 31
0.0
100
AcDbText
  0
TEXT
  5
B2
330
17
100
AcDbEntity
  8
TEXT
100
AcDbText
 10
320.0
 20
196.0
 30
0.0
 40
2.3
  1
Stage 2 stent        5.00       5.750       3.375
 11
320.0
 21
196.0
 31
0.0
100
AcDbText
  0
TEXT
  5
B3
330
17
100
AcDbEntity
  8
TEXT
100
AcDbText
 10
320.0
 20
189.0
 30
0.0
 40
2.3
  1
Stage 1 stent        4.00       3.375       1.450
 11
320.0
 21
189.0
 31
0.0
100
AcDbText
  0
TEXT
  5
B4
330
17
100
AcDbEntity
  8
TEXT
100
AcDbText
 10
320.0
 20
182.0
 30
0.0
 40
2.3
  1
Lower slips        4.50        8.72        1.55
 11
320.0
 21
182.0
 31
0.0
100
AcDbText
  0
TEXT
  5
B5
330
17
100
AcDbEntity
  8
TEXT
100
AcDbText
 10
320.0
 20
175.0
 30
0.0
 40
2.3
  1
Bottom sub        2.00       1.688        0.75
 11
320.0
 21
175.0
 31
0.0
100
AcDbText
  0
TEXT
  5
B6
330
17
100
AcDbEntity
  8
TEXT
100
AcDbText
 10
320.0
 20
168.0
 30
0.0
 40
2.3
  1
Mandrel tail        3.00       1.350           -
 11
320.0
 21
168.0
 31
0.0
100
AcDbText
  0
TEXT
  5
B7
330
17
100
AcDbEntity
  8
TEXT
100
AcDbText
 10
320.0
 20
161.0
 30
0.0
 40
2.3
  1
     TOTAL       54.00   1.688 RUN    8.65 SET
 11
320.0
 21
161.0
 31
0.0
100
AcDbText
  0
TEXT
  5
B8
330
17
100
AcDbEntity
  8
TEXT
100
AcDbText
 10
320.0
 20
80.0
 30
0.0
 40
2.8
  1
NOTES:
 11
320.0
 21
80.0
 31
0.0
100
AcDbText
  0
TEXT
  5
B9
330
17
100
AcDbEntity
  8
TEXT
100
AcDbText
 10
320.0
 20
72.0
 30
0.0
 40
2.8
  1
1. RUN-IN MAX OD 1.688 IN FOR THRU-TUBING
 11
320.0
 21
72.0
 31
0.0
100
AcDbText
  0
TEXT
  5
BA
330
17
100
AcDbEntity
  8
TEXT
100
AcDbText
 10
320.0
 20
64.0
 30
0.0
 40
2.8
  1
2. SET IN 9-5/8 IN 40# CSG (DRIFT ID 8.679 IN)
 11
320.0
 21
64.0
 31
0.0
100
AcDbText
  0
TEXT
  5
BB
330
17
100
AcDbEntity
  8
TEXT
100
AcDbText
 10
320.0
 20
56.0
 30
0.0
 40
2.8
  1
3. STG1/STG2 ACTUATORS INTERNAL (BLADDER/BELLEVILLE)
 11
320.0
 21
56.0
 31
0.0
100
AcDbText
  0
TEXT
  5
BC
330
17
100
AcDbEntity
  8
TEXT
100
AcDbText
 10
320.0
 20
48.0
 30
0.0
 40
2.8
  1
4. STG3 IRIS: 4.0 IN STROKE FROM SETTING TOOL
 11
320.0
 21
48.0
 31
0.0
100
AcDbText
  0
TEXT
  5
BD
330
17
100
AcDbEntity
  8
TEXT
100
AcDbText
 10
320.0
 20
40.0
 30
0.0
 40
2.8
  1
5. 3D REF: output/stl/shex_54/40_plug_uhex_54in_assembly_set.stl
 11
320.0
 21
40.0
 31
0.0
100
AcDbText
  0
TEXT
  5
BE
330
17
100
AcDbEntity
  8
TEXT
100
AcDbText
 10
320.0
 20
32.0
 30
0.0
 40
2.8
  1
6. Z=0 AT MANDREL TAIL; FISHING NECK AT Z=54 IN
 11
320.0
 21
32.0
 31
0.0
100
AcDbText
  0
ENDSEC
  0
SECTION
  2
OBJECTS
  0
DICTIONARY
  5
A
330
0
100
AcDbDictionary
281
1
  3
ACAD_COLOR
350
B
  3
ACAD_GROUP
350
C
  3
ACAD_LAYOUT
350
D
  3
ACAD_MATERIAL
350
E
  3
ACAD_MLEADERSTYLE
350
F
  3
ACAD_MLINESTYLE
350
10
  3
ACAD_PLOTSETTINGS
350
11
  3
ACAD_PLOTSTYLENAME
350
12
  3
ACAD_SCALELIST
350
14
  3
ACAD_TABLESTYLE
350
15
  3
ACAD_VISUALSTYLE
350
16
  3
EZDXF_META
350
2D
  0
DICTIONARY
  5
B
330
A
100
AcDbDictionary
281
1
  0
DICTIONARY
  5
C
330
A
100
AcDbDictionary
281
1
  0
DICTIONARY
  5
D
330
A
100
AcDbDictionary
281
1
  3
Model
350
1A
  3
Layout1
350
1E
  0
DICTIONARY
  5
E
330
A
100
AcDbDictionary
281
1
  3
ByBlock
350
1F
  3
ByLayer
350
20
  3
Global
350
21
  0
DICTIONARY
  5
F
330
A
100
AcDbDictionary
281
1
  3
Standard
350
2C
  0
DICTIONARY
  5
10
330
A
100
AcDbDictionary
281
1
  3
Standard
350
22
  0
DICTIONARY
  5
11
330
A
100
AcDbDictionary
281
1
  0
ACDBDICTIONARYWDFLT
  5
12
330
A
100
AcDbDictionary
281
1
  3
Normal
350
13
100
AcDbDictionaryWithDefault
340
13
  0
ACDBPLACEHOLDER
  5
13
330
12
  0
DICTIONARY
  5
14
330
A
100
AcDbDictionary
281
1
  0
DICTIONARY
  5
15
330
A
100
AcDbDictionary
281
1
  0
DICTIONARY
  5
16
330
A
100
AcDbDictionary
281
1
  0
LAYOUT
  5
1A
330
D
100
AcDbPlotSettings
  1

  4
A3
  6

 40
7.5
 41
20.0
 42
7.5
 43
20.0
 44
420.0
 45
297.0
 46
0.0
 47
0.0
 48
0.0
 49
0.0
140
0.0
141
0.0
142
1.0
143
1.0
 70
1024
 72
1
 73
0
 74
5
  7

 75
16
 76
0
 77
2
 78
300
147
1.0
148
0.0
149
0.0
100
AcDbLayout
  1
Model
 70
1
 71
0
 10
0.0
 20
0.0
 11
420.0
 21
297.0
 12
0.0
 22
0.0
 32
0.0
 14
1e+20
 24
1e+20
 34
1e+20
 15
-1e+20
 25
-1e+20
 35
-1e+20
146
0.0
 13
0.0
 23
0.0
 33
0.0
 16
1.0
 26
0.0
 36
0.0
 17
0.0
 27
1.0
 37
0.0
 76
1
330
17
  0
LAYOUT
  5
1E
330
D
100
AcDbPlotSettings
  1

  4
A3
  6

 40
7.5
 41
20.0
 42
7.5
 43
20.0
 44
420.0
 45
297.0
 46
0.0
 47
0.0
 48
0.0
 49
0.0
140
0.0
141
0.0
142
1.0
143
1.0
 70
0
 72
1
 73
0
 74
5
  7

 75
16
 76
0
 77
2
 78
300
147
1.0
148
0.0
149
0.0
100
AcDbLayout
  1
Layout1
 70
1
 71
1
 10
0.0
 20
0.0
 11
420.0
 21
297.0
 12
0.0
 22
0.0
 32
0.0
 14
1e+20
 24
1e+20
 34
1e+20
 15
-1e+20
 25
-1e+20
 35
-1e+20
146
0.0
 13
0.0
 23
0.0
 33
0.0
 16
1.0
 26
0.0
 36
0.0
 17
0.0
 27
1.0
 37
0.0
 76
1
330
1B
  0
MATERIAL
  5
1F
102
{ACAD_REACTORS
330
E
102
}
330
E
100
AcDbMaterial
  1
ByBlock
  2

 70
0
 40
1.0
 71
1
 41
1.0
 91
-1023410177
 42
1.0
 72
1
  3

 73
1
 74
1
 75
1
 44
0.5
 73
0
 45
1.0
 46
1.0
 77
1
  4

 78
1
 79
1
170
1
 48
1.0
171
1
  6

172
1
173
1
174
1
140
1.0
141
1.0
175
1
  7

176
1
177
1
178
1
143
1.0
179
1
  8

270
1
271
1
272
1
145
1.0
146
1.0
273
1
  9

274
1
275
1
276
1
 42
1.0
 72
1
  3

 73
1
 74
1
 75
1
 94
63
  0
MATERIAL
  5
20
102
{ACAD_REACTORS
330
E
102
}
330
E
100
AcDbMaterial
  1
ByLayer
  2

 70
0
 40
1.0
 71
1
 41
1.0
 91
-1023410177
 42
1.0
 72
1
  3

 73
1
 74
1
 75
1
 44
0.5
 73
0
 45
1.0
 46
1.0
 77
1
  4

 78
1
 79
1
170
1
 48
1.0
171
1
  6

172
1
173
1
174
1
140
1.0
141
1.0
175
1
  7

176
1
177
1
178
1
143
1.0
179
1
  8

270
1
271
1
272
1
145
1.0
146
1.0
273
1
  9

274
1
275
1
276
1
 42
1.0
 72
1
  3

 73
1
 74
1
 75
1
 94
63
  0
MATERIAL
  5
21
102
{ACAD_REACTORS
330
E
102
}
330
E
100
AcDbMaterial
  1
Global
  2

 70
0
 40
1.0
 71
1
 41
1.0
 91
-1023410177
 42
1.0
 72
1
  3

 73
1
 74
1
 75
1
 44
0.5
 73
0
 45
1.0
 46
1.0
 77
1
  4

 78
1
 79
1
170
1
 48
1.0
171
1
  6

172
1
173
1
174
1
140
1.0
141
1.0
175
1
  7

176
1
177
1
178
1
143
1.0
179
1
  8

270
1
271
1
272
1
145
1.0
146
1.0
273
1
  9

274
1
275
1
276
1
 42
1.0
 72
1
  3

 73
1
 74
1
 75
1
 94
63
  0
MLINESTYLE
  5
22
102
{ACAD_REACTORS
330
10
102
}
330
10
100
AcDbMlineStyle
  2
Standard
 70
0
  3

 62
256
 51
90.0
 52
90.0
 71
2
 49
0.5
 62
256
  6
BYLAYER
 49
-0.5
 62
256
  6
BYLAYER
  0
MLEADERSTYLE
  5
2C
102
{ACAD_REACTORS
330
F
102
}
330
F
100
AcDbMLeaderStyle
179
2
170
2
171
1
172
0
 90
2
 40
0.0
 41
0.0
173
1
 91
-1056964608
 92
-2
290
1
 42
2.0
291
1
 43
8.0
  3
Standard
 44
4.0
300

342
29
174
1
175
1
176
0
178
1
 93
-1056964608
 45
4.0
292
0
297
0
 46
4.0
 94
-1056964608
 47
1.0
 49
1.0
140
1.0
294
1
141
0.0
177
0
142
1.0
295
0
296
0
143
3.75
271
0
272
9
273
9
  0
DICTIONARY
  5
2D
330
A
100
AcDbDictionary
280
1
281
1
  3
CREATED_BY_EZDXF
350
2E
  3
WRITTEN_BY_EZDXF
350
C1
  0
DICTIONARYVAR
  5
2E
330
2D
100
DictionaryVariables
280
0
  1
1.4.4 @ 2026-05-28T09:40:08.333273+00:00
  0
DICTIONARYVAR
  5
C1
330
2D
100
DictionaryVariables
280
0
  1
1.4.4 @ 2026-05-28T09:40:08.337573+00:00
  0
ENDSEC
  0
EOF
