  0
SECTION
  2
HEADER
  9
$ACADVER
  1
AC1024
  9
$ACADMAINTVER
 70
6
  9
$DWGCODEPAGE
  3
ANSI_1252
  9
$LASTSAVEDBY
  1
ezdxf
  9
$INSBASE
 10
0.0
 20
0.0
 30
0.0
  9
$EXTMIN
 10
1e+20
 20
1e+20
 30
1e+20
  9
$EXTMAX
 10
-1e+20
 20
-1e+20
 30
-1e+20
  9
$LIMMIN
 10
0.0
 20
0.0
  9
$LIMMAX
 10
420.0
 20
297.0
  9
$ORTHOMODE
 70
0
  9
$REGENMODE
 70
1
  9
$FILLMODE
 70
1
  9
$QTEXTMODE
 70
0
  9
$MIRRTEXT
 70
1
  9
$LTSCALE
 40
1.0
  9
$ATTMODE
 70
1
  9
$TEXTSIZE
 40
2.5
  9
$TRACEWID
 40
1.0
  9
$TEXTSTYLE
  7
Standard
  9
$CLAYER
  8
0
  9
$CELTYPE
  6
ByLayer
  9
$CECOLOR
 62
256
  9
$CELTSCALE
 40
1.0
  9
$DISPSILH
 70
0
  9
$DIMSCALE
 40
1.0
  9
$DIMASZ
 40
2.5
  9
$DIMEXO
 40
0.625
  9
$DIMDLI
 40
3.75
  9
$DIMRND
 40
0.0
  9
$DIMDLE
 40
0.0
  9
$DIMEXE
 40
1.25
  9
$DIMTP
 40
0.0
  9
$DIMTM
 40
0.0
  9
$DIMTXT
 40
2.5
  9
$DIMCEN
 40
2.5
  9
$DIMTSZ
 40
0.0
  9
$DIMTOL
 70
0
  9
$DIMLIM
 70
0
  9
$DIMTIH
 70
0
  9
$DIMTOH
 70
0
  9
$DIMSE1
 70
0
  9
$DIMSE2
 70
0
  9
$DIMTAD
 70
1
  9
$DIMZIN
 70
8
  9
$DIMBLK
  1

  9
$DIMASO
 70
1
  9
$DIMSHO
 70
1
  9
$DIMPOST
  1

  9
$DIMAPOST
  1

  9
$DIMALT
 70
0
  9
$DIMALTD
 70
3
  9
$DIMALTF
 40
0.03937007874
  9
$DIMLFAC
 40
1.0
  9
$DIMTOFL
 70
1
  9
$DIMTVP
 40
0.0
  9
$DIMTIX
 70
0
  9
$DIMSOXD
 70
0
  9
$DIMSAH
 70
0
  9
$DIMBLK1
  1

  9
$DIMBLK2
  1

  9
$DIMSTYLE
  2
ISO-25
  9
$DIMCLRD
 70
0
  9
$DIMCLRE
 70
0
  9
$DIMCLRT
 70
0
  9
$DIMTFAC
 40
1.0
  9
$DIMGAP
 40
0.625
  9
$DIMJUST
 70
0
  9
$DIMSD1
 70
0
  9
$DIMSD2
 70
0
  9
$DIMTOLJ
 70
0
  9
$DIMTZIN
 70
8
  9
$DIMALTZ
 70
0
  9
$DIMALTTZ
 70
0
  9
$DIMUPT
 70
0
  9
$DIMDEC
 70
2
  9
$DIMTDEC
 70
2
  9
$DIMALTU
 70
2
  9
$DIMALTTD
 70
3
  9
$DIMTXSTY
  7
Standard
  9
$DIMAUNIT
 70
0
  9
$DIMADEC
 70
0
  9
$DIMALTRND
 40
0.0
  9
$DIMAZIN
 70
0
  9
$DIMDSEP
 70
44
  9
$DIMATFIT
 70
3
  9
$DIMFRAC
 70
0
  9
$DIMLDRBLK
  1

  9
$DIMLUNIT
 70
2
  9
$DIMLWD
 70
-2
  9
$DIMLWE
 70
-2
  9
$DIMTMOVE
 70
0
  9
$DIMFXL
 40
1.0
  9
$DIMFXLON
 70
0
  9
$DIMJOGANG
 40
0.785398163397
  9
$DIMTFILL
 70
0
  9
$DIMTFILLCLR
 70
0
  9
$DIMARCSYM
 70
0
  9
$DIMLTYPE
  6

  9
$DIMLTEX1
  6

  9
$DIMLTEX2
  6

  9
$DIMTXTDIRECTION
 70
0
  9
$LUNITS
 70
2
  9
$LUPREC
 70
4
  9
$SKETCHINC
 40
1.0
  9
$FILLETRAD
 40
10.0
  9
$AUNITS
 70
0
  9
$AUPREC
 70
2
  9
$MENU
  1
.
  9
$ELEVATION
 40
0.0
  9
$PELEVATION
 40
0.0
  9
$THICKNESS
 40
0.0
  9
$LIMCHECK
 70
0
  9
$CHAMFERA
 40
0.0
  9
$CHAMFERB
 40
0.0
  9
$CHAMFERC
 40
0.0
  9
$CHAMFERD
 40
0.0
  9
$SKPOLY
 70
0
  9
$TDCREATE
 40
2461189.7362037036
  9
$TDUCREATE
 40
2458532.153996898
  9
$TDUPDATE
 40
2461189.7362037036
  9
$TDUUPDATE
 40
2458532.1544311
  9
$TDINDWG
 40
0.0
  9
$TDUSRTIMER
 40
0.0
  9
$USRTIMER
 70
1
  9
$ANGBASE
 50
0.0
  9
$ANGDIR
 70
0
  9
$PDMODE
 70
0
  9
$PDSIZE
 40
0.0
  9
$PLINEWID
 40
0.0
  9
$SPLFRAME
 70
0
  9
$SPLINETYPE
 70
6
  9
$SPLINESEGS
 70
8
  9
$HANDSEED
  5
99
  9
$SURFTAB1
 70
6
  9
$SURFTAB2
 70
6
  9
$SURFTYPE
 70
6
  9
$SURFU
 70
6
  9
$SURFV
 70
6
  9
$UCSBASE
  2

  9
$UCSNAME
  2

  9
$UCSORG
 10
0.0
 20
0.0
 30
0.0
  9
$UCSXDIR
 10
1.0
 20
0.0
 30
0.0
  9
$UCSYDIR
 10
0.0
 20
1.0
 30
0.0
  9
$UCSORTHOREF
  2

  9
$UCSORTHOVIEW
 70
0
  9
$UCSORGTOP
 10
0.0
 20
0.0
 30
0.0
  9
$UCSORGBOTTOM
 10
0.0
 20
0.0
 30
0.0
  9
$UCSORGLEFT
 10
0.0
 20
0.0
 30
0.0
  9
$UCSORGRIGHT
 10
0.0
 20
0.0
 30
0.0
  9
$UCSORGFRONT
 10
0.0
 20
0.0
 30
0.0
  9
$UCSORGBACK
 10
0.0
 20
0.0
 30
0.0
  9
$PUCSBASE
  2

  9
$PUCSNAME
  2

  9
$PUCSORG
 10
0.0
 20
0.0
 30
0.0
  9
$PUCSXDIR
 10
1.0
 20
0.0
 30
0.0
  9
$PUCSYDIR
 10
0.0
 20
1.0
 30
0.0
  9
$PUCSORTHOREF
  2

  9
$PUCSORTHOVIEW
 70
0
  9
$PUCSORGTOP
 10
0.0
 20
0.0
 30
0.0
  9
$PUCSORGBOTTOM
 10
0.0
 20
0.0
 30
0.0
  9
$PUCSORGLEFT
 10
0.0
 20
0.0
 30
0.0
  9
$PUCSORGRIGHT
 10
0.0
 20
0.0
 30
0.0
  9
$PUCSORGFRONT
 10
0.0
 20
0.0
 30
0.0
  9
$PUCSORGBACK
 10
0.0
 20
0.0
 30
0.0
  9
$USERI1
 70
0
  9
$USERI2
 70
0
  9
$USERI3
 70
0
  9
$USERI4
 70
0
  9
$USERI5
 70
0
  9
$USERR1
 40
0.0
  9
$USERR2
 40
0.0
  9
$USERR3
 40
0.0
  9
$USERR4
 40
0.0
  9
$USERR5
 40
0.0
  9
$WORLDVIEW
 70
1
  9
$SHADEDGE
 70
3
  9
$SHADEDIF
 70
70
  9
$TILEMODE
 70
1
  9
$MAXACTVP
 70
64
  9
$PINSBASE
 10
0.0
 20
0.0
 30
0.0
  9
$PLIMCHECK
 70
0
  9
$PEXTMIN
 10
1e+20
 20
1e+20
 30
1e+20
  9
$PEXTMAX
 10
-1e+20
 20
-1e+20
 30
-1e+20
  9
$PLIMMIN
 10
0.0
 20
0.0
  9
$PLIMMAX
 10
420.0
 20
297.0
  9
$UNITMODE
 70
0
  9
$VISRETAIN
 70
1
  9
$PLINEGEN
 70
0
  9
$PSLTSCALE
 70
1
  9
$TREEDEPTH
 70
3020
  9
$CMLSTYLE
  2
Standard
  9
$CMLJUST
 70
0
  9
$CMLSCALE
 40
20.0
  9
$PROXYGRAPHICS
 70
1
  9
$MEASUREMENT
 70
1
  9
$CELWEIGHT
370
-1
  9
$ENDCAPS
280
0
  9
$JOINSTYLE
280
0
  9
$LWDISPLAY
290
0
  9
$INSUNITS
 70
4
  9
$HYPERLINKBASE
  1

  9
$STYLESHEET
  1

  9
$XEDIT
290
1
  9
$CEPSNTYPE
380
0
  9
$PSTYLEMODE
290
1
  9
$FINGERPRINTGUID
  2
{D086C28A-2FC3-4333-88B2-79344FC94EEC}
  9
$VERSIONGUID
  2
{979C6F48-1932-42A7-99EC-D0E2975D09FA}
  9
$EXTNAMES
290
1
  9
$PSVPSCALE
 40
0.0
  9
$OLESTARTUP
290
0
  9
$SORTENTS
280
127
  9
$INDEXCTL
280
0
  9
$HIDETEXT
280
1
  9
$XCLIPFRAME
280
1
  9
$HALOGAP
280
0
  9
$OBSCOLOR
 70
257
  9
$OBSLTYPE
280
0
  9
$INTERSECTIONDISPLAY
280
0
  9
$INTERSECTIONCOLOR
 70
257
  9
$DIMASSOC
280
2
  9
$PROJECTNAME
  1

  9
$CAMERADISPLAY
290
0
  9
$LENSLENGTH
 40
50.0
  9
$CAMERAHEIGHT
 40
0.0
  9
$STEPSPERSEC
 40
24.0
  9
$STEPSIZE
 40
100.0
  9
$3DDWFPREC
 40
2.0
  9
$PSOLWIDTH
 40
0.005
  9
$PSOLHEIGHT
 40
0.08
  9
$LOFTANG1
 40
1.570796326795
  9
$LOFTANG2
 40
1.570796326795
  9
$LOFTMAG1
 40
0.0
  9
$LOFTMAG2
 40
0.0
  9
$LOFTPARAM
 70
7
  9
$LOFTNORMALS
280
1
  9
$LATITUDE
 40
37.795
  9
$LONGITUDE
 40
-122.394
  9
$NORTHDIRECTION
 40
0.0
  9
$TIMEZONE
 70
-8000
  9
$LIGHTGLYPHDISPLAY
280
1
  9
$TILEMODELIGHTSYNCH
280
1
  9
$CMATERIAL
347
20
  9
$SOLIDHIST
280
0
  9
$SHOWHIST
280
1
  9
$DWFFRAME
280
2
  9
$DGNFRAME
280
2
  9
$REALWORLDSCALE
290
1
  9
$INTERFERECOLOR
 62
256
  9
$CSHADOW
280
0
  9
$SHADOWPLANELOCATION
 40
0.0
  0
ENDSEC
  0
SECTION
  2
CLASSES
  0
CLASS
  1
ACDBDICTIONARYWDFLT
  2
AcDbDictionaryWithDefault
  3
ObjectDBX Classes
 90
0
 91
0
280
0
281
0
  0
CLASS
  1
SUN
  2
AcDbSun
  3
SCENEOE
 90
1153
 91
0
280
0
281
0
  0
CLASS
  1
VISUALSTYLE
  2
AcDbVisualStyle
  3
ObjectDBX Classes
 90
4095
 91
0
280
0
281
0
  0
CLASS
  1
MATERIAL
  2
AcDbMaterial
  3
ObjectDBX Classes
 90
1153
 91
0
280
0
281
0
  0
CLASS
  1
SCALE
  2
AcDbScale
  3
ObjectDBX Classes
 90
1153
 91
0
280
0
281
0
  0
CLASS
  1
TABLESTYLE
  2
AcDbTableStyle
  3
ObjectDBX Classes
 90
4095
 91
0
280
0
281
0
  0
CLASS
  1
MLEADERSTYLE
  2
AcDbMLeaderStyle
  3
ACDB_MLEADERSTYLE_CLASS
 90
4095
 91
0
280
0
281
0
  0
CLASS
  1
DICTIONARYVAR
  2
AcDbDictionaryVar
  3
ObjectDBX Classes
 90
0
 91
0
280
0
281
0
  0
CLASS
  1
CELLSTYLEMAP
  2
AcDbCellStyleMap
  3
ObjectDBX Classes
 90
1152
 91
0
280
0
281
0
  0
CLASS
  1
MENTALRAYRENDERSETTINGS
  2
AcDbMentalRayRenderSettings
  3
SCENEOE
 90
1024
 91
0
280
0
281
0
  0
CLASS
  1
ACDBDETAILVIEWSTYLE
  2
AcDbDetailViewStyle
  3
ObjectDBX Classes
 90
1025
 91
0
280
0
281
0
  0
CLASS
  1
ACDBSECTIONVIEWSTYLE
  2
AcDbSectionViewStyle
  3
ObjectDBX Classes
 90
1025
 91
0
280
0
281
0
  0
CLASS
  1
RASTERVARIABLES
  2
AcDbRasterVariables
  3
ISM
 90
0
 91
0
280
0
281
0
  0
CLASS
  1
ACDBPLACEHOLDER
  2
AcDbPlaceHolder
  3
ObjectDBX Classes
 90
0
 91
0
280
0
281
0
  0
CLASS
  1
LAYOUT
  2
AcDbLayout
  3
ObjectDBX Classes
 90
0
 91
0
280
0
281
0
  0
ENDSEC
  0
SECTION
  2
TABLES
  0
TABLE
  2
VPORT
  5
8
330
0
100
AcDbSymbolTable
 70
1
  0
VPORT
  5
23
330
8
100
AcDbSymbolTableRecord
100
AcDbViewportTableRecord
  2
*Active
 70
0
 10
0.0
 20
0.0
 11
1.0
 21
1.0
 12
0.0
 22
0.0
 13
0.0
 23
0.0
 14
0.5
 24
0.5
 15
0.5
 25
0.5
 16
0.0
 26
0.0
 36
1.0
 17
0.0
 27
0.0
 37
0.0
 40
1000.0
 41
1.34
 42
50.0
 43
0.0
 44
0.0
 50
0.0
 51
0.0
 71
0
 72
1000
 73
1
 74
3
 75
0
 76
0
 77
0
 78
0
281
0
 65
0
146
0.0
  0
ENDTAB
  0
TABLE
  2
LTYPE
  5
2
330
0
100
AcDbSymbolTable
 70
3
  0
LTYPE
  5
24
330
2
100
AcDbSymbolTableRecord
100
AcDbLinetypeTableRecord
  2
ByBlock
 70
0
  3

 72
65
 73
0
 40
0.0
  0
LTYPE
  5
25
330
2
100
AcDbSymbolTableRecord
100
AcDbLinetypeTableRecord
  2
ByLayer
 70
0
  3

 72
65
 73
0
 40
0.0
  0
LTYPE
  5
26
330
2
100
AcDbSymbolTableRecord
100
AcDbLinetypeTableRecord
  2
Continuous
 70
0
  3

 72
65
 73
0
 40
0.0
  0
ENDTAB
  0
TABLE
  2
LAYER
  5
1
330
0
100
AcDbSymbolTable
 70
7
  0
LAYER
  5
27
330
1
100
AcDbSymbolTableRecord
100
AcDbLayerTableRecord
  2
0
 70
0
 62
7
  6
Continuous
370
-3
390
13
347
21
  0
LAYER
  5
28
330
1
100
AcDbSymbolTableRecord
100
AcDbLayerTableRecord
  2
Defpoints
 70
0
 62
7
  6
Continuous
290
0
370
-3
390
13
347
21
  0
LAYER
  5
2F
330
1
100
AcDbSymbolTableRecord
100
AcDbLayerTableRecord
  2
OUTLINE
 70
0
 62
7
  6
Continuous
370
-3
390
13
347
21
  0
LAYER
  5
30
330
1
100
AcDbSymbolTableRecord
100
AcDbLayerTableRecord
  2
DIM
 70
0
 62
3
  6
Continuous
370
-3
390
13
347
21
  0
LAYER
  5
31
330
1
100
AcDbSymbolTableRecord
100
AcDbLayerTableRecord
  2
CENTER
 70
0
 62
1
  6
Continuous
370
-3
390
13
347
21
  0
LAYER
  5
32
330
1
100
AcDbSymbolTableRecord
100
AcDbLayerTableRecord
  2
TEXT
 70
0
 62
2
  6
Continuous
370
-3
390
13
347
21
  0
LAYER
  5
33
330
1
100
AcDbSymbolTableRecord
100
AcDbLayerTableRecord
  2
HIDDEN
 70
0
 62
8
  6
DASHED
370
-3
390
13
347
21
  0
ENDTAB
  0
TABLE
  2
STYLE
  5
5
330
0
100
AcDbSymbolTable
 70
1
  0
STYLE
  5
29
330
5
100
AcDbSymbolTableRecord
100
AcDbTextStyleTableRecord
  2
Standard
 70
0
 40
0.0
 41
1.0
 50
0.0
 71
0
 42
2.5
  3
txt
  4

  0
ENDTAB
  0
TABLE
  2
VIEW
  5
7
330
0
100
AcDbSymbolTable
 70
0
  0
ENDTAB
  0
TABLE
  2
UCS
  5
6
330
0
100
AcDbSymbolTable
 70
0
  0
ENDTAB
  0
TABLE
  2
APPID
  5
3
330
0
100
AcDbSymbolTable
 70
3
  0
APPID
  5
2A
330
3
100
AcDbSymbolTableRecord
100
AcDbRegAppTableRecord
  2
ACAD
 70
0
  0
APPID
  5
96
330
3
100
AcDbSymbolTableRecord
100
AcDbRegAppTableRecord
  2
HATCHBACKGROUNDCOLOR
 70
0
  0
APPID
  5
97
330
3
100
AcDbSymbolTableRecord
100
AcDbRegAppTableRecord
  2
EZDXF
 70
0
  0
ENDTAB
  0
TABLE
  2
DIMSTYLE
  5
4
330
0
100
AcDbSymbolTable
 70
1
100
AcDbDimStyleTable
  0
DIMSTYLE
105
2B
330
4
100
AcDbSymbolTableRecord
100
AcDbDimStyleTableRecord
  2
Standard
 70
0
 40
1.0
 41
2.5
 42
0.625
 43
3.75
 44
1.25
 45
0.0
 46
0.0
 47
0.0
 48
0.0
 49
2.5
140
2.5
141
2.5
142
0.0
143
0.03937007874
144
1.0
145
0.0
146
1.0
147
0.625
148
0.0
 69
0
 70
0
 71
0
 72
0
 73
0
 74
0
 75
0
 76
0
 77
1
 78
8
 79
3
170
0
171
3
172
1
173
0
174
0
175
0
176
0
177
0
178
0
179
2
271
2
272
2
273
2
274
3
275
0
276
0
277
2
278
44
279
0
280
0
281
0
282
0
283
0
284
8
285
0
286
0
288
0
289
3
290
0
371
-2
372
-2
  0
ENDTAB
  0
TABLE
  2
BLOCK_RECORD
  5
9
330
0
100
AcDbSymbolTable
 70
2
  0
BLOCK_RECORD
  5
17
330
9
100
AcDbSymbolTableRecord
100
AcDbBlockTableRecord
  2
*Model_Space
340
1A
 70
0
280
1
281
0
  0
BLOCK_RECORD
  5
1B
330
9
100
AcDbSymbolTableRecord
100
AcDbBlockTableRecord
  2
*Paper_Space
340
1E
 70
0
280
1
281
0
  0
ENDTAB
  0
ENDSEC
  0
SECTION
  2
BLOCKS
  0
BLOCK
  5
18
330
17
100
AcDbEntity
  8
0
100
AcDbBlockBegin
  2
*Model_Space
 70
0
 10
0.0
 20
0.0
 30
0.0
  3
*Model_Space
  1

  0
ENDBLK
  5
19
330
17
100
AcDbEntity
  8
0
100
AcDbBlockEnd
  0
BLOCK
  5
1C
330
1B
100
AcDbEntity
  8
0
100
AcDbBlockBegin
  2
*Paper_Space
 70
0
 10
0.0
 20
0.0
 30
0.0
  3
*Paper_Space
  1

  0
ENDBLK
  5
1D
330
1B
100
AcDbEntity
  8
0
100
AcDbBlockEnd
  0
ENDSEC
  0
SECTION
  2
ENTITIES
  0
LWPOLYLINE
  5
34
330
17
100
AcDbEntity
  8
OUTLINE
100
AcDbPolyline
 90
5
 70
0
 10
10.0
 20
10.0
 10
190.0
 20
10.0
 10
190.0
 20
50.0
 10
10.0
 20
50.0
 10
10.0
 20
10.0
  0
TEXT
  5
35
330
17
100
AcDbEntity
  8
TEXT
100
AcDbText
 10
15.0
 20
38.0
 30
0.0
 40
3.5
  1
DWG NO: DWG-002
 11
15.0
 21
38.0
 31
0.0
100
AcDbText
  0
TEXT
  5
36
330
17
100
AcDbEntity
  8
TEXT
100
AcDbText
 10
15.0
 20
30.0
 30
0.0
 40
3.5
  1
STAGE 3 IRIS MODULE ASSY
 11
15.0
 21
30.0
 31
0.0
100
AcDbText
  0
TEXT
  5
37
330
17
100
AcDbEntity
  8
TEXT
100
AcDbText
 10
15.0
 20
22.0
 30
0.0
 40
3.5
  1
SHEX-BP-UHEX-54
 11
15.0
 21
22.0
 31
0.0
100
AcDbText
  0
TEXT
  5
38
330
17
100
AcDbEntity
  8
TEXT
100
AcDbText
 10
140.0
 20
38.0
 30
0.0
 40
3.5
  1
REV: A
 11
140.0
 21
38.0
 31
0.0
100
AcDbText
  0
TEXT
  5
39
330
17
100
AcDbEntity
  8
TEXT
100
AcDbText
 10
140.0
 20
22.0
 30
0.0
 40
3.5
  1
UNLESS NOTED: mm
 11
140.0
 21
22.0
 31
0.0
100
AcDbText
  0
TEXT
  5
3A
330
17
100
AcDbEntity
  8
TEXT
100
AcDbText
 10
15.0
 20
14.0
 30
0.0
 40
3.5
  1
MATL: 17-4 PH H900
 11
15.0
 21
14.0
 31
0.0
100
AcDbText
  0
TEXT
  5
3B
330
17
100
AcDbEntity
  8
TEXT
100
AcDbText
 10
35.0
 20
207.9855
 30
0.0
 40
3.2
  1
VIEW 1 — MODULE HALF-SECTION (SET)  (L 1:4  OD 1:10)
 11
35.0
 21
207.9855
 31
0.0
100
AcDbText
  0
LINE
  5
3C
330
17
100
AcDbEntity
  8
CENTER
  6
CENTER
100
AcDbLine
 10
27.0
 20
175.0
 30
0.0
 11
96.34
 21
175.0
 31
0.0
  0
LWPOLYLINE
  5
3D
330
17
100
AcDbEntity
  8
OUTLINE
100
AcDbPolyline
 90
7
 70
0
 10
35.0
 20
175.0
 10
57.4028
 20
175.0
 10
88.34
 20
175.0
 10
88.34
 20
185.9855
 10
57.4028
 20
185.9855
 10
35.0
 20
182.3025
 10
35.0
 20
175.0
  0
LINE
  5
3E
330
17
100
AcDbEntity
  8
HIDDEN
  6
DASHED
100
AcDbLine
 10
35.0
 20
182.3025
 30
0.0
 11
88.34
 21
182.3025
 31
0.0
  0
TEXT
  5
3F
330
17
100
AcDbEntity
  8
TEXT
100
AcDbText
 10
41.400800000000004
 20
188.3025
 30
0.0
 40
2.2
  1
COLLAPSED POCKET
 11
41.400800000000004
 21
188.3025
 31
0.0
100
AcDbText
  0
TEXT
  5
40
330
17
100
AcDbEntity
  8
TEXT
100
AcDbText
 10
61.67
 20
188.3025
 30
0.0
 40
2.2
  1
HELIX ACTUATION
 11
61.67
 21
188.3025
 31
0.0
100
AcDbText
  0
TEXT
  5
41
330
17
100
AcDbEntity
  8
TEXT
100
AcDbText
 10
81.9392
 20
188.3025
 30
0.0
 40
2.2
  1
LOCK LAND
 11
81.9392
 21
188.3025
 31
0.0
100
AcDbText
  0
TEXT
  5
42
330
17
100
AcDbEntity
  8
DIM
100
AcDbText
 10
51.67
 20
165.0
 30
0.0
 40
2.6
  1
L 190.5
 11
51.67
 21
165.0
 31
0.0
100
AcDbText
  0
TEXT
  5
43
330
17
100
AcDbEntity
  8
DIM
100
AcDbText
 10
30.0
 20
184.3025
 30
0.0
 40
2.3
  1
OD 146.0 COLL
 11
30.0
 21
184.3025
 31
0.0
100
AcDbText
  0
TEXT
  5
44
330
17
100
AcDbEntity
  8
DIM
100
AcDbText
 10
58.34
 20
187.9855
 30
0.0
 40
2.3
  1
OD 219.7 DEP
 11
58.34
 21
187.9855
 31
0.0
100
AcDbText
  0
TEXT
  5
45
330
17
100
AcDbEntity
  8
DIM
100
AcDbText
 10
57.4028
 20
157.0
 30
0.0
 40
2.3
  1
STROKE 101.6
 11
57.4028
 21
157.0
 31
0.0
100
AcDbText
  0
TEXT
  5
46
330
17
100
AcDbEntity
  8
TEXT
100
AcDbText
 10
35.0
 20
202.85500000000002
 30
0.0
 40
3.2
  1
VIEW 2 — SECTION B-B (DEPLOYED)  (SCALE 1:4)
 11
35.0
 21
202.85500000000002
 31
0.0
100
AcDbText
  0
CIRCLE
  5
47
330
17
100
AcDbEntity
  8
OUTLINE
100
AcDbCircle
 10
149.85500000000002
 20
189.85500000000002
 30
0.0
 40
109.855
  0
CIRCLE
  5
48
330
17
100
AcDbEntity
  8
HIDDEN
100
AcDbCircle
 10
149.85500000000002
 20
189.85500000000002
 30
0.0
 40
73.02499999999999
  0
ARC
  5
49
330
17
100
AcDbEntity
  8
OUTLINE
100
AcDbCircle
 10
149.85500000000002
 20
189.85500000000002
 30
0.0
 40
75.02499999999999
100
AcDbArc
 50
0.6
 51
21.9
  0
ARC
  5
4A
330
17
100
AcDbEntity
  8
OUTLINE
100
AcDbCircle
 10
149.85500000000002
 20
189.85500000000002
 30
0.0
 40
108.855
100
AcDbArc
 50
0.6
 51
21.9
  0
LINE
  5
4B
330
17
100
AcDbEntity
  8
OUTLINE
100
AcDbLine
 10
224.87588633164756
 20
190.64064560332136
 30
0.0
 11
258.7040314112828
 21
190.99490605997394
 31
0.0
  0
LINE
  5
4C
330
17
100
AcDbEntity
  8
OUTLINE
100
AcDbLine
 10
219.46591494876648
 20
217.83840838775006
 30
0.0
 11
250.85461541816696
 21
230.4565850722897
 31
0.0
  0
ARC
  5
4D
330
17
100
AcDbEntity
  8
OUTLINE
100
AcDbCircle
 10
149.85500000000002
 20
189.85500000000002
 30
0.0
 40
75.02499999999999
100
AcDbArc
 50
23.1
 51
44.4
  0
ARC
  5
4E
330
17
100
AcDbEntity
  8
OUTLINE
100
AcDbCircle
 10
149.85500000000002
 20
189.85500000000002
 30
0.0
 40
108.855
100
AcDbArc
 50
23.1
 51
44.4
  0
LINE
  5
4F
330
17
100
AcDbEntity
  8
OUTLINE
100
AcDbLine
 10
218.86460783656338
 20
219.29009217318222
 30
0.0
 11
249.98216909095777
 21
232.5628568278807
 31
0.0
  0
LINE
  5
50
330
17
100
AcDbEntity
  8
OUTLINE
100
AcDbLine
 10
203.4583127894511
 20
242.34724212201525
 30
0.0
 11
227.62892354142883
 21
266.01685293158243
 31
0.0
  0
ARC
  5
51
330
17
100
AcDbEntity
  8
OUTLINE
100
AcDbCircle
 10
149.85500000000002
 20
189.85500000000002
 30
0.0
 40
75.02499999999999
100
AcDbArc
 50
45.6
 51
66.9
  0
ARC
  5
52
330
17
100
AcDbEntity
  8
OUTLINE
100
AcDbCircle
 10
149.85500000000002
 20
189.85500000000002
 30
0.0
 40
108.855
100
AcDbArc
 50
45.6
 51
66.9
  0
LINE
  5
53
330
17
100
AcDbEntity
  8
OUTLINE
100
AcDbLine
 10
202.34724212201525
 20
243.4583127894511
 30
0.0
 11
226.01685293158243
 21
267.62892354142883
 31
0.0
  0
LINE
  5
54
330
17
100
AcDbEntity
  8
OUTLINE
100
AcDbLine
 10
179.29009217318222
 20
258.8646078365634
 30
0.0
 11
192.5628568278807
 21
289.98216909095777
 31
0.0
  0
ARC
  5
55
330
17
100
AcDbEntity
  8
OUTLINE
100
AcDbCircle
 10
149.85500000000002
 20
189.85500000000002
 30
0.0
 40
75.02499999999999
100
AcDbArc
 50
68.1
 51
89.4
  0
ARC
  5
56
330
17
100
AcDbEntity
  8
OUTLINE
100
AcDbCircle
 10
149.85500000000002
 20
189.85500000000002
 30
0.0
 40
108.855
100
AcDbArc
 50
68.1
 51
89.4
  0
LINE
  5
57
330
17
100
AcDbEntity
  8
OUTLINE
100
AcDbLine
 10
177.8384083877501
 20
259.46591494876645
 30
0.0
 11
190.4565850722897
 21
290.854615418167
 31
0.0
  0
LINE
  5
58
330
17
100
AcDbEntity
  8
OUTLINE
100
AcDbLine
 10
150.64064560332136
 20
264.87588633164756
 30
0.0
 11
150.99490605997394
 21
298.7040314112828
 31
0.0
  0
ARC
  5
59
330
17
100
AcDbEntity
  8
OUTLINE
100
AcDbCircle
 10
149.85500000000002
 20
189.85500000000002
 30
0.0
 40
75.02499999999999
100
AcDbArc
 50
90.6
 51
111.9
  0
ARC
  5
5A
330
17
100
AcDbEntity
  8
OUTLINE
100
AcDbCircle
 10
149.85500000000002
 20
189.85500000000002
 30
0.0
 40
108.855
100
AcDbArc
 50
90.6
 51
111.9
  0
LINE
  5
5B
330
17
100
AcDbEntity
  8
OUTLINE
100
AcDbLine
 10
149.06935439667868
 20
264.87588633164756
 30
0.0
 11
148.7150939400261
 21
298.7040314112828
 31
0.0
  0
LINE
  5
5C
330
17
100
AcDbEntity
  8
OUTLINE
100
AcDbLine
 10
121.87159161224994
 20
259.46591494876645
 30
0.0
 11
109.25341492771032
 21
290.85461541816693
 31
0.0
  0
ARC
  5
5D
330
17
100
AcDbEntity
  8
OUTLINE
100
AcDbCircle
 10
149.85500000000002
 20
189.85500000000002
 30
0.0
 40
75.02499999999999
100
AcDbArc
 50
113.1
 51
134.4
  0
ARC
  5
5E
330
17
100
AcDbEntity
  8
OUTLINE
100
AcDbCircle
 10
149.85500000000002
 20
189.85500000000002
 30
0.0
 40
108.855
100
AcDbArc
 50
113.1
 51
134.4
  0
LINE
  5
5F
330
17
100
AcDbEntity
  8
OUTLINE
100
AcDbLine
 10
120.41990782681782
 20
258.8646078365634
 30
0.0
 11
107.14714317211934
 21
289.98216909095777
 31
0.0
  0
LINE
  5
60
330
17
100
AcDbEntity
  8
OUTLINE
100
AcDbLine
 10
97.36275787798479
 20
243.45831278945107
 30
0.0
 11
73.69314706841762
 21
267.62892354142883
 31
0.0
  0
ARC
  5
61
330
17
100
AcDbEntity
  8
OUTLINE
100
AcDbCircle
 10
149.85500000000002
 20
189.85500000000002
 30
0.0
 40
75.02499999999999
100
AcDbArc
 50
135.6
 51
156.9
  0
ARC
  5
62
330
17
100
AcDbEntity
  8
OUTLINE
100
AcDbCircle
 10
149.85500000000002
 20
189.85500000000002
 30
0.0
 40
108.855
100
AcDbArc
 50
135.6
 51
156.9
  0
LINE
  5
63
330
17
100
AcDbEntity
  8
OUTLINE
100
AcDbLine
 10
96.25168721054897
 20
242.34724212201527
 30
0.0
 11
72.08107645857123
 21
266.01685293158243
 31
0.0
  0
LINE
  5
64
330
17
100
AcDbEntity
  8
OUTLINE
100
AcDbLine
 10
80.84539216343666
 20
219.29009217318222
 30
0.0
 11
49.727830909042254
 21
232.5628568278807
 31
0.0
  0
ARC
  5
65
330
17
100
AcDbEntity
  8
OUTLINE
100
AcDbCircle
 10
149.85500000000002
 20
189.85500000000002
 30
0.0
 40
75.02499999999999
100
AcDbArc
 50
158.1
 51
179.4
  0
ARC
  5
66
330
17
100
AcDbEntity
  8
OUTLINE
100
AcDbCircle
 10
149.85500000000002
 20
189.85500000000002
 30
0.0
 40
108.855
100
AcDbArc
 50
158.1
 51
179.4
  0
LINE
  5
67
330
17
100
AcDbEntity
  8
OUTLINE
100
AcDbLine
 10
80.24408505123357
 20
217.8384083877501
 30
0.0
 11
48.85538458183309
 21
230.45658507228973
 31
0.0
  0
LINE
  5
68
330
17
100
AcDbEntity
  8
OUTLINE
100
AcDbLine
 10
74.83411366835247
 20
190.64064560332136
 30
0.0
 11
41.005968588717195
 21
190.99490605997394
 31
0.0
  0
ARC
  5
69
330
17
100
AcDbEntity
  8
OUTLINE
100
AcDbCircle
 10
149.85500000000002
 20
189.85500000000002
 30
0.0
 40
75.02499999999999
100
AcDbArc
 50
180.6
 51
201.9
  0
ARC
  5
6A
330
17
100
AcDbEntity
  8
OUTLINE
100
AcDbCircle
 10
149.85500000000002
 20
189.85500000000002
 30
0.0
 40
108.855
100
AcDbArc
 50
180.6
 51
201.9
  0
LINE
  5
6B
330
17
100
AcDbEntity
  8
OUTLINE
100
AcDbLine
 10
74.83411366835247
 20
189.0693543966787
 30
0.0
 11
41.005968588717195
 21
188.71509394002612
 31
0.0
  0
LINE
  5
6C
330
17
100
AcDbEntity
  8
OUTLINE
100
AcDbLine
 10
80.24408505123355
 20
161.87159161224994
 30
0.0
 11
48.85538458183308
 21
149.25341492771034
 31
0.0
  0
ARC
  5
6D
330
17
100
AcDbEntity
  8
OUTLINE
100
AcDbCircle
 10
149.85500000000002
 20
189.85500000000002
 30
0.0
 40
75.02499999999999
100
AcDbArc
 50
203.1
 51
224.4
  0
ARC
  5
6E
330
17
100
AcDbEntity
  8
OUTLINE
100
AcDbCircle
 10
149.85500000000002
 20
189.85500000000002
 30
0.0
 40
108.855
100
AcDbArc
 50
203.1
 51
224.4
  0
LINE
  5
6F
330
17
100
AcDbEntity
  8
OUTLINE
100
AcDbLine
 10
80.84539216343664
 20
160.41990782681785
 30
0.0
 11
49.727830909042254
 21
147.14714317211937
 31
0.0
  0
LINE
  5
70
330
17
100
AcDbEntity
  8
OUTLINE
100
AcDbLine
 10
96.25168721054895
 20
137.3627578779848
 30
0.0
 11
72.0810764585712
 21
113.69314706841762
 31
0.0
  0
ARC
  5
71
330
17
100
AcDbEntity
  8
OUTLINE
100
AcDbCircle
 10
149.85500000000002
 20
189.85500000000002
 30
0.0
 40
75.02499999999999
100
AcDbArc
 50
225.6
 51
246.9
  0
ARC
  5
72
330
17
100
AcDbEntity
  8
OUTLINE
100
AcDbCircle
 10
149.85500000000002
 20
189.85500000000002
 30
0.0
 40
108.855
100
AcDbArc
 50
225.6
 51
246.9
  0
LINE
  5
73
330
17
100
AcDbEntity
  8
OUTLINE
100
AcDbLine
 10
97.36275787798476
 20
136.25168721054897
 30
0.0
 11
73.6931470684176
 21
112.08107645857123
 31
0.0
  0
LINE
  5
74
330
17
100
AcDbEntity
  8
OUTLINE
100
AcDbLine
 10
120.41990782681782
 20
120.84539216343666
 30
0.0
 11
107.14714317211934
 21
89.72783090904225
 31
0.0
  0
ARC
  5
75
330
17
100
AcDbEntity
  8
OUTLINE
100
AcDbCircle
 10
149.85500000000002
 20
189.85500000000002
 30
0.0
 40
75.02499999999999
100
AcDbArc
 50
248.1
 51
269.4
  0
ARC
  5
76
330
17
100
AcDbEntity
  8
OUTLINE
100
AcDbCircle
 10
149.85500000000002
 20
189.85500000000002
 30
0.0
 40
108.855
100
AcDbArc
 50
248.1
 51
269.4
  0
LINE
  5
77
330
17
100
AcDbEntity
  8
OUTLINE
100
AcDbLine
 10
121.87159161224993
 20
120.24408505123357
 30
0.0
 11
109.2534149277103
 21
88.85538458183309
 31
0.0
  0
LINE
  5
78
330
17
100
AcDbEntity
  8
OUTLINE
100
AcDbLine
 10
149.06935439667865
 20
114.83411366835247
 30
0.0
 11
148.71509394002604
 21
81.0059685887172
 31
0.0
  0
ARC
  5
79
330
17
100
AcDbEntity
  8
OUTLINE
100
AcDbCircle
 10
149.85500000000002
 20
189.85500000000002
 30
0.0
 40
75.02499999999999
100
AcDbArc
 50
270.6
 51
291.9
  0
ARC
  5
7A
330
17
100
AcDbEntity
  8
OUTLINE
100
AcDbCircle
 10
149.85500000000002
 20
189.85500000000002
 30
0.0
 40
108.855
100
AcDbArc
 50
270.6
 51
291.9
  0
LINE
  5
7B
330
17
100
AcDbEntity
  8
OUTLINE
100
AcDbLine
 10
150.64064560332136
 20
114.83411366835247
 30
0.0
 11
150.99490605997397
 21
81.0059685887172
 31
0.0
  0
LINE
  5
7C
330
17
100
AcDbEntity
  8
OUTLINE
100
AcDbLine
 10
177.83840838775
 20
120.24408505123353
 30
0.0
 11
190.4565850722896
 21
88.85538458183304
 31
0.0
  0
ARC
  5
7D
330
17
100
AcDbEntity
  8
OUTLINE
100
AcDbCircle
 10
149.85500000000002
 20
189.85500000000002
 30
0.0
 40
75.02499999999999
100
AcDbArc
 50
293.1
 51
314.4
  0
ARC
  5
7E
330
17
100
AcDbEntity
  8
OUTLINE
100
AcDbCircle
 10
149.85500000000002
 20
189.85500000000002
 30
0.0
 40
108.855
100
AcDbArc
 50
293.1
 51
314.4
  0
LINE
  5
7F
330
17
100
AcDbEntity
  8
OUTLINE
100
AcDbLine
 10
179.29009217318225
 20
120.84539216343667
 30
0.0
 11
192.56285682788075
 21
89.72783090904228
 31
0.0
  0
LINE
  5
80
330
17
100
AcDbEntity
  8
OUTLINE
100
AcDbLine
 10
202.34724212201525
 20
136.25168721054894
 30
0.0
 11
226.01685293158238
 21
112.08107645857118
 31
0.0
  0
ARC
  5
81
330
17
100
AcDbEntity
  8
OUTLINE
100
AcDbCircle
 10
149.85500000000002
 20
189.85500000000002
 30
0.0
 40
75.02499999999999
100
AcDbArc
 50
315.6
 51
336.9
  0
ARC
  5
82
330
17
100
AcDbEntity
  8
OUTLINE
100
AcDbCircle
 10
149.85500000000002
 20
189.85500000000002
 30
0.0
 40
108.855
100
AcDbArc
 50
315.6
 51
336.9
  0
LINE
  5
83
330
17
100
AcDbEntity
  8
OUTLINE
100
AcDbLine
 10
203.4583127894511
 20
137.3627578779848
 30
0.0
 11
227.62892354142883
 21
113.69314706841762
 31
0.0
  0
LINE
  5
84
330
17
100
AcDbEntity
  8
OUTLINE
100
AcDbLine
 10
218.86460783656335
 20
160.41990782681776
 30
0.0
 11
249.9821690909577
 21
147.14714317211923
 31
0.0
  0
ARC
  5
85
330
17
100
AcDbEntity
  8
OUTLINE
100
AcDbCircle
 10
149.85500000000002
 20
189.85500000000002
 30
0.0
 40
75.02499999999999
100
AcDbArc
 50
338.1
 51
359.4
  0
ARC
  5
86
330
17
100
AcDbEntity
  8
OUTLINE
100
AcDbCircle
 10
149.85500000000002
 20
189.85500000000002
 30
0.0
 40
108.855
100
AcDbArc
 50
338.1
 51
359.4
  0
LINE
  5
87
330
17
100
AcDbEntity
  8
OUTLINE
100
AcDbLine
 10
219.4659149487665
 20
161.87159161225
 30
0.0
 11
250.854615418167
 21
149.25341492771037
 31
0.0
  0
LINE
  5
88
330
17
100
AcDbEntity
  8
OUTLINE
100
AcDbLine
 10
224.87588633164756
 20
189.06935439667865
 30
0.0
 11
258.7040314112828
 21
188.71509394002604
 31
0.0
  0
CIRCLE
  5
89
330
17
100
AcDbEntity
  8
CENTER
100
AcDbCircle
 10
149.85500000000002
 20
189.85500000000002
 30
0.0
 40
2.0
  0
TEXT
  5
8A
330
17
100
AcDbEntity
  8
DIM
100
AcDbText
 10
35.0
 20
69.0
 30
0.0
 40
2.6
  1
16 SEG @ 22.5 DEG
 11
35.0
 21
69.0
 31
0.0
100
AcDbText
  0
TEXT
  5
8B
330
17
100
AcDbEntity
  8
TEXT
100
AcDbText
 10
200.0
 20
183.0
 30
0.0
 40
3.2
  1
VIEW 3 — HELIX GUIDE
 11
200.0
 21
183.0
 31
0.0
100
AcDbText
  0
LINE
  5
8C
330
17
100
AcDbEntity
  8
OUTLINE
100
AcDbLine
 10
200.0
 20
155.0
 30
0.0
 11
266.675
 21
155.0
 31
0.0
  0
LINE
  5
8D
330
17
100
AcDbEntity
  8
OUTLINE
100
AcDbLine
 10
200.0
 20
161.0
 30
0.0
 11
266.675
 21
161.0
 31
0.0
  0
LWPOLYLINE
  5
8E
330
17
100
AcDbEntity
  8
HIDDEN
  6
DASHED
100
AcDbPolyline
 90
25
 70
0
 10
200.0
 20
158.0
 10
202.778125
 20
159.25
 10
205.55625
 20
160.1650635094611
 10
208.334375
 20
160.5
 10
211.1125
 20
160.1650635094611
 10
213.890625
 20
159.25
 10
216.66875
 20
158.0
 10
219.446875
 20
156.75
 10
222.225
 20
155.8349364905389
 10
225.003125
 20
155.5
 10
227.78125
 20
155.8349364905389
 10
230.559375
 20
156.75
 10
233.3375
 20
158.0
 10
236.115625
 20
159.25
 10
238.89375
 20
160.1650635094611
 10
241.671875
 20
160.5
 10
244.45
 20
160.1650635094611
 10
247.228125
 20
159.25
 10
250.00625
 20
158.0
 10
252.784375
 20
156.75
 10
255.5625
 20
155.8349364905389
 10
258.340625
 20
155.5
 10
261.11875
 20
155.8349364905389
 10
263.896875
 20
156.75
 10
266.675
 20
158.0
  0
LWPOLYLINE
  5
8F
330
17
100
AcDbEntity
  8
HIDDEN
  6
DASHED
100
AcDbPolyline
 90
25
 70
0
 10
200.0
 20
158.0
 10
202.778125
 20
156.75
 10
205.55625
 20
155.8349364905389
 10
208.334375
 20
155.5
 10
211.1125
 20
155.8349364905389
 10
213.890625
 20
156.75
 10
216.66875
 20
158.0
 10
219.446875
 20
159.25
 10
222.225
 20
160.1650635094611
 10
225.003125
 20
160.5
 10
227.78125
 20
160.1650635094611
 10
230.559375
 20
159.25
 10
233.3375
 20
158.0
 10
236.115625
 20
156.75
 10
238.89375
 20
155.8349364905389
 10
241.671875
 20
155.5
 10
244.45
 20
155.8349364905389
 10
247.228125
 20
156.75
 10
250.00625
 20
158.0
 10
252.784375
 20
159.25
 10
255.5625
 20
160.1650635094611
 10
258.340625
 20
160.5
 10
261.11875
 20
160.1650635094611
 10
263.896875
 20
159.25
 10
266.675
 20
158.0
  0
TEXT
  5
90
330
17
100
AcDbEntity
  8
DIM
100
AcDbText
 10
200.0
 20
147.0
 30
0.0
 40
2.3
  1
IN718 DOUBLE START
 11
200.0
 21
147.0
 31
0.0
100
AcDbText
  0
TEXT
  5
91
330
17
100
AcDbEntity
  8
DIM
100
AcDbText
 10
216.66875
 20
167.0
 30
0.0
 40
2.3
  1
LEAD 4.0 IN (101.6)
 11
216.66875
 21
167.0
 31
0.0
100
AcDbText
  0
TEXT
  5
92
330
17
100
AcDbEntity
  8
TEXT
100
AcDbText
 10
200.0
 20
95.0
 30
0.0
 40
2.5
  1
ASSY: 16 x SHEX-001 + HELIX GUIDE + RETAINER
 11
200.0
 21
95.0
 31
0.0
100
AcDbText
  0
TEXT
  5
93
330
17
100
AcDbEntity
  8
TEXT
100
AcDbText
 10
200.0
 20
89.0
 30
0.0
 40
2.5
  1
COLLAPSED OD 5.750 IN | DEPLOYED OD 8.650 IN
 11
200.0
 21
89.0
 31
0.0
100
AcDbText
  0
TEXT
  5
94
330
17
100
AcDbEntity
  8
TEXT
100
AcDbText
 10
200.0
 20
83.0
 30
0.0
 40
2.5
  1
ACTUATION: SETTING TOOL ROTARY + AXIAL 4 IN
 11
200.0
 21
83.0
 31
0.0
100
AcDbText
  0
TEXT
  5
95
330
17
100
AcDbEntity
  8
TEXT
100
AcDbText
 10
200.0
 20
77.0
 30
0.0
 40
2.5
  1
SEGMENT THK 0.187 IN (PRODUCTION)
 11
200.0
 21
77.0
 31
0.0
100
AcDbText
  0
ENDSEC
  0
SECTION
  2
OBJECTS
  0
DICTIONARY
  5
A
330
0
100
AcDbDictionary
281
1
  3
ACAD_COLOR
350
B
  3
ACAD_GROUP
350
C
  3
ACAD_LAYOUT
350
D
  3
ACAD_MATERIAL
350
E
  3
ACAD_MLEADERSTYLE
350
F
  3
ACAD_MLINESTYLE
350
10
  3
ACAD_PLOTSETTINGS
350
11
  3
ACAD_PLOTSTYLENAME
350
12
  3
ACAD_SCALELIST
350
14
  3
ACAD_TABLESTYLE
350
15
  3
ACAD_VISUALSTYLE
350
16
  3
EZDXF_META
350
2D
  0
DICTIONARY
  5
B
330
A
100
AcDbDictionary
281
1
  0
DICTIONARY
  5
C
330
A
100
AcDbDictionary
281
1
  0
DICTIONARY
  5
D
330
A
100
AcDbDictionary
281
1
  3
Model
350
1A
  3
Layout1
350
1E
  0
DICTIONARY
  5
E
330
A
100
AcDbDictionary
281
1
  3
ByBlock
350
1F
  3
ByLayer
350
20
  3
Global
350
21
  0
DICTIONARY
  5
F
330
A
100
AcDbDictionary
281
1
  3
Standard
350
2C
  0
DICTIONARY
  5
10
330
A
100
AcDbDictionary
281
1
  3
Standard
350
22
  0
DICTIONARY
  5
11
330
A
100
AcDbDictionary
281
1
  0
ACDBDICTIONARYWDFLT
  5
12
330
A
100
AcDbDictionary
281
1
  3
Normal
350
13
100
AcDbDictionaryWithDefault
340
13
  0
ACDBPLACEHOLDER
  5
13
330
12
  0
DICTIONARY
  5
14
330
A
100
AcDbDictionary
281
1
  0
DICTIONARY
  5
15
330
A
100
AcDbDictionary
281
1
  0
DICTIONARY
  5
16
330
A
100
AcDbDictionary
281
1
  0
LAYOUT
  5
1A
330
D
100
AcDbPlotSettings
  1

  4
A3
  6

 40
7.5
 41
20.0
 42
7.5
 43
20.0
 44
420.0
 45
297.0
 46
0.0
 47
0.0
 48
0.0
 49
0.0
140
0.0
141
0.0
142
1.0
143
1.0
 70
1024
 72
1
 73
0
 74
5
  7

 75
16
 76
0
 77
2
 78
300
147
1.0
148
0.0
149
0.0
100
AcDbLayout
  1
Model
 70
1
 71
0
 10
0.0
 20
0.0
 11
420.0
 21
297.0
 12
0.0
 22
0.0
 32
0.0
 14
1e+20
 24
1e+20
 34
1e+20
 15
-1e+20
 25
-1e+20
 35
-1e+20
146
0.0
 13
0.0
 23
0.0
 33
0.0
 16
1.0
 26
0.0
 36
0.0
 17
0.0
 27
1.0
 37
0.0
 76
1
330
17
  0
LAYOUT
  5
1E
330
D
100
AcDbPlotSettings
  1

  4
A3
  6

 40
7.5
 41
20.0
 42
7.5
 43
20.0
 44
420.0
 45
297.0
 46
0.0
 47
0.0
 48
0.0
 49
0.0
140
0.0
141
0.0
142
1.0
143
1.0
 70
0
 72
1
 73
0
 74
5
  7

 75
16
 76
0
 77
2
 78
300
147
1.0
148
0.0
149
0.0
100
AcDbLayout
  1
Layout1
 70
1
 71
1
 10
0.0
 20
0.0
 11
420.0
 21
297.0
 12
0.0
 22
0.0
 32
0.0
 14
1e+20
 24
1e+20
 34
1e+20
 15
-1e+20
 25
-1e+20
 35
-1e+20
146
0.0
 13
0.0
 23
0.0
 33
0.0
 16
1.0
 26
0.0
 36
0.0
 17
0.0
 27
1.0
 37
0.0
 76
1
330
1B
  0
MATERIAL
  5
1F
102
{ACAD_REACTORS
330
E
102
}
330
E
100
AcDbMaterial
  1
ByBlock
  2

 70
0
 40
1.0
 71
1
 41
1.0
 91
-1023410177
 42
1.0
 72
1
  3

 73
1
 74
1
 75
1
 44
0.5
 73
0
 45
1.0
 46
1.0
 77
1
  4

 78
1
 79
1
170
1
 48
1.0
171
1
  6

172
1
173
1
174
1
140
1.0
141
1.0
175
1
  7

176
1
177
1
178
1
143
1.0
179
1
  8

270
1
271
1
272
1
145
1.0
146
1.0
273
1
  9

274
1
275
1
276
1
 42
1.0
 72
1
  3

 73
1
 74
1
 75
1
 94
63
  0
MATERIAL
  5
20
102
{ACAD_REACTORS
330
E
102
}
330
E
100
AcDbMaterial
  1
ByLayer
  2

 70
0
 40
1.0
 71
1
 41
1.0
 91
-1023410177
 42
1.0
 72
1
  3

 73
1
 74
1
 75
1
 44
0.5
 73
0
 45
1.0
 46
1.0
 77
1
  4

 78
1
 79
1
170
1
 48
1.0
171
1
  6

172
1
173
1
174
1
140
1.0
141
1.0
175
1
  7

176
1
177
1
178
1
143
1.0
179
1
  8

270
1
271
1
272
1
145
1.0
146
1.0
273
1
  9

274
1
275
1
276
1
 42
1.0
 72
1
  3

 73
1
 74
1
 75
1
 94
63
  0
MATERIAL
  5
21
102
{ACAD_REACTORS
330
E
102
}
330
E
100
AcDbMaterial
  1
Global
  2

 70
0
 40
1.0
 71
1
 41
1.0
 91
-1023410177
 42
1.0
 72
1
  3

 73
1
 74
1
 75
1
 44
0.5
 73
0
 45
1.0
 46
1.0
 77
1
  4

 78
1
 79
1
170
1
 48
1.0
171
1
  6

172
1
173
1
174
1
140
1.0
141
1.0
175
1
  7

176
1
177
1
178
1
143
1.0
179
1
  8

270
1
271
1
272
1
145
1.0
146
1.0
273
1
  9

274
1
275
1
276
1
 42
1.0
 72
1
  3

 73
1
 74
1
 75
1
 94
63
  0
MLINESTYLE
  5
22
102
{ACAD_REACTORS
330
10
102
}
330
10
100
AcDbMlineStyle
  2
Standard
 70
0
  3

 62
256
 51
90.0
 52
90.0
 71
2
 49
0.5
 62
256
  6
BYLAYER
 49
-0.5
 62
256
  6
BYLAYER
  0
MLEADERSTYLE
  5
2C
102
{ACAD_REACTORS
330
F
102
}
330
F
100
AcDbMLeaderStyle
179
2
170
2
171
1
172
0
 90
2
 40
0.0
 41
0.0
173
1
 91
-1056964608
 92
-2
290
1
 42
2.0
291
1
 43
8.0
  3
Standard
 44
4.0
300

342
29
174
1
175
1
176
0
178
1
 93
-1056964608
 45
4.0
292
0
297
0
 46
4.0
 94
-1056964608
 47
1.0
 49
1.0
140
1.0
294
1
141
0.0
177
0
142
1.0
295
0
296
0
143
3.75
271
0
272
9
273
9
  0
DICTIONARY
  5
2D
330
A
100
AcDbDictionary
280
1
281
1
  3
CREATED_BY_EZDXF
350
2E
  3
WRITTEN_BY_EZDXF
350
98
  0
DICTIONARYVAR
  5
2E
330
2D
100
DictionaryVariables
280
0
  1
1.4.4 @ 2026-05-28T09:40:08.314920+00:00
  0
DICTIONARYVAR
  5
98
330
2D
100
DictionaryVariables
280
0
  1
1.4.4 @ 2026-05-28T09:40:08.318343+00:00
  0
ENDSEC
  0
EOF
